<?xml version="1.0" standalone="yes"?>

<svg version="1.1" viewBox="0.0 0.0 808.0682414698163 350.7296587926509" fill="none" stroke="none" stroke-linecap="square" stroke-miterlimit="10" xmlns="http://www.w3.org/2000/svg" xmlns:xlink="http://www.w3.org/1999/xlink"><clipPath id="p.0"><path d="m0 0l808.06824 0l0 350.72964l-808.06824 0l0 -350.72964z" clip-rule="nonzero"></path></clipPath><g clip-path="url(#p.0)"><path fill="#000000" fill-opacity="0.0" d="m0 0l808.06824 0l0 350.72964l-808.06824 0z" fill-rule="evenodd"></path><path fill="#000000" fill-opacity="0.0" d="m75.47244 194.1273l665.92126 0" fill-rule="evenodd"></path><path stroke="#ffffff" stroke-width="4.0" stroke-linejoin="round" stroke-linecap="butt" d="m75.47244 194.1273l652.2129 0" fill-rule="evenodd"></path><path fill="#ffffff" stroke="#ffffff" stroke-width="4.0" stroke-linecap="butt" d="m727.68536 194.1273l-4.498352 4.4983215l12.35907 -4.4983215l-12.35907 -4.498337z" fill-rule="evenodd"></path><path fill="#0b5394" d="m133.5958 194.1273l0 0c0 -6.827469 5.5347595 -12.362213 12.362213 -12.362213l0 0c3.278656 0 6.4230347 1.3024445 8.741394 3.6208038c2.3183594 2.3183594 3.6208038 5.462738 3.6208038 8.741409l0 0c0 6.8274536 -5.5347443 12.362198 -12.362198 12.362198l0 0c-6.8274536 0 -12.362213 -5.5347443 -12.362213 -12.362198z" fill-rule="evenodd"></path><path stroke="#ffffff" stroke-width="1.0" stroke-linejoin="round" stroke-linecap="butt" d="m133.5958 194.1273l0 0c0 -6.827469 5.5347595 -12.362213 12.362213 -12.362213l0 0c3.278656 0 6.4230347 1.3024445 8.741394 3.6208038c2.3183594 2.3183594 3.6208038 5.462738 3.6208038 8.741409l0 0c0 6.8274536 -5.5347443 12.362198 -12.362198 12.362198l0 0c-6.8274536 0 -12.362213 -5.5347443 -12.362213 -12.362198z" fill-rule="evenodd"></path><path fill="#0b5394" d="m387.05774 194.1273l0 0c0 -6.827469 5.5347595 -12.362213 12.362213 -12.362213l0 0c3.278656 0 6.4230347 1.3024445 8.741394 3.6208038c2.3183594 2.3183594 3.620819 5.462738 3.620819 8.741409l0 0c0 6.8274536 -5.5347595 12.362198 -12.362213 12.362198l0 0c-6.8274536 0 -12.362213 -5.5347443 -12.362213 -12.362198z" fill-rule="evenodd"></path><path stroke="#ffffff" stroke-width="1.0" stroke-linejoin="round" stroke-linecap="butt" d="m387.05774 194.1273l0 0c0 -6.827469 5.5347595 -12.362213 12.362213 -12.362213l0 0c3.278656 0 6.4230347 1.3024445 8.741394 3.6208038c2.3183594 2.3183594 3.620819 5.462738 3.620819 8.741409l0 0c0 6.8274536 -5.5347595 12.362198 -12.362213 12.362198l0 0c-6.8274536 0 -12.362213 -5.5347443 -12.362213 -12.362198z" fill-rule="evenodd"></path><path fill="#0b5394" d="m640.5197 194.1273l0 0c0 -6.827469 5.534729 -12.362213 12.362183 -12.362213l0 0c3.2786255 0 6.4230347 1.3024445 8.741394 3.6208038c2.3183594 2.3183594 3.6207886 5.462738 3.6207886 8.741409l0 0c0 6.8274536 -5.534729 12.362198 -12.362183 12.362198l0 0c-6.8274536 0 -12.362183 -5.5347443 -12.362183 -12.362198z" fill-rule="evenodd"></path><path stroke="#ffffff" stroke-width="1.0" stroke-linejoin="round" stroke-linecap="butt" d="m640.5197 194.1273l0 0c0 -6.827469 5.534729 -12.362213 12.362183 -12.362213l0 0c3.2786255 0 6.4230347 1.3024445 8.741394 3.6208038c2.3183594 2.3183594 3.6207886 5.462738 3.6207886 8.741409l0 0c0 6.8274536 -5.534729 12.362198 -12.362183 12.362198l0 0c-6.8274536 0 -12.362183 -5.5347443 -12.362183 -12.362198z" fill-rule="evenodd"></path><path fill="#000000" fill-opacity="0.0" d="m66.67454 267.2979l157.6063 0l0 44.81888l-157.6063 0z" fill-rule="evenodd"></path><path fill="#ffffff" d="m96.271385 294.2179l0 -13.359375l1.8125 0l7.015625 10.484375l0 -10.484375l1.6875 0l0 13.359375l-1.8125 0l-7.015625 -10.5l0 10.5l-1.6875 0zm12.676071 -4.84375q0 -2.6875 1.484375 -3.96875q1.25 -1.078125 3.046875 -1.078125q2.0 0 3.265625 1.3125q1.265625 1.296875 1.265625 3.609375q0 1.859375 -0.5625 2.9375q-0.5625 1.0625 -1.640625 1.65625q-1.0625 0.59375 -2.328125 0.59375q-2.03125 0 -3.28125 -1.296875q-1.25 -1.3125 -1.25 -3.765625zm1.6875 0q0 1.859375 0.796875 2.796875q0.8125 0.921875 2.046875 0.921875q1.21875 0 2.03125 -0.921875q0.8125 -0.9375 0.8125 -2.84375q0 -1.796875 -0.8125 -2.71875q-0.8125 -0.921875 -2.03125 -0.921875q-1.234375 0 -2.046875 0.921875q-0.796875 0.90625 -0.796875 2.765625zm15.563217 4.84375l0 -1.21875q-0.90625 1.4375 -2.703125 1.4375q-1.15625 0 -2.125 -0.640625q-0.96875 -0.640625 -1.5 -1.78125q-0.53125 -1.140625 -0.53125 -2.625q0 -1.453125 0.484375 -2.625q0.484375 -1.1875 1.4375 -1.8125q0.96875 -0.625 2.171875 -0.625q0.875 0 1.546875 0.375q0.6875 0.359375 1.109375 0.953125l0 -4.796875l1.640625 0l0 13.359375l-1.53125 0zm-5.171875 -4.828125q0 1.859375 0.78125 2.78125q0.78125 0.921875 1.84375 0.921875q1.078125 0 1.828125 -0.875q0.75 -0.890625 0.75 -2.6875q0 -1.984375 -0.765625 -2.90625q-0.765625 -0.9375 -1.890625 -0.9375q-1.078125 0 -1.8125 0.890625q-0.734375 0.890625 -0.734375 2.8125zm15.906975 1.71875l1.6875 0.203125q-0.40625 1.484375 -1.484375 2.3125q-1.078125 0.8125 -2.765625 0.8125q-2.125 0 -3.375 -1.296875q-1.234375 -1.3125 -1.234375 -3.671875q0 -2.453125 1.25 -3.796875q1.265625 -1.34375 3.265625 -1.34375q1.9375 0 3.15625 1.328125q1.234375 1.3125 1.234375 3.703125q0 0.15625 0 0.4375l-7.21875 0q0.09375 1.59375 0.90625 2.453125q0.8125 0.84375 2.015625 0.84375q0.90625 0 1.546875 -0.46875q0.640625 -0.484375 1.015625 -1.515625zm-5.390625 -2.65625l5.40625 0q-0.109375 -1.21875 -0.625 -1.828125q-0.78125 -0.953125 -2.03125 -0.953125q-1.125 0 -1.90625 0.765625q-0.765625 0.75 -0.84375 2.015625zm9.594467 5.765625l0 -1.875l1.875 0l0 1.875l-1.875 0zm4.714554 -11.453125l0 -1.90625l1.640625 0l0 1.90625l-1.640625 0zm-2.078125 15.203125l0.3125 -1.390625q0.5 0.125 0.78125 0.125q0.5 0 0.734375 -0.328125q0.25 -0.328125 0.25 -1.671875l0 -10.15625l1.640625 0l0 10.203125q0 1.78125 -0.46875 2.484375q-0.59375 0.90625 -1.96875 0.90625q-0.65625 0 -1.28125 -0.171875zm5.582321 -6.640625l1.625 -0.25q0.125 0.96875 0.75 1.5q0.625 0.515625 1.75 0.515625q1.125 0 1.671875 -0.453125q0.546875 -0.46875 0.546875 -1.09375q0 -0.546875 -0.484375 -0.875q-0.328125 -0.21875 -1.671875 -0.546875q-1.8125 -0.46875 -2.515625 -0.796875q-0.6875 -0.328125 -1.046875 -0.90625q-0.359375 -0.59375 -0.359375 -1.3125q0 -0.640625 0.296875 -1.1875q0.296875 -0.5625 0.8125 -0.921875q0.375 -0.28125 1.03125 -0.46875q0.671875 -0.203125 1.421875 -0.203125q1.140625 0 2.0 0.328125q0.859375 0.328125 1.265625 0.890625q0.421875 0.5625 0.578125 1.5l-1.609375 0.21875q-0.109375 -0.75 -0.640625 -1.171875q-0.515625 -0.421875 -1.46875 -0.421875q-1.140625 0 -1.625 0.375q-0.46875 0.375 -0.46875 0.875q0 0.3125 0.1875 0.578125q0.203125 0.265625 0.640625 0.4375q0.234375 0.09375 1.4375 0.421875q1.75 0.453125 2.4375 0.75q0.6875 0.296875 1.078125 0.859375q0.390625 0.5625 0.390625 1.40625q0 0.828125 -0.484375 1.546875q-0.46875 0.71875 -1.375 1.125q-0.90625 0.390625 -2.046875 0.390625q-1.875 0 -2.875 -0.78125q-0.984375 -0.78125 -1.25 -2.328125z" fill-rule="nonzero"></path><path fill="#ffffff" d="m175.69962 295.32727l-8.015625 0q-3.9375 0 -6.3125 -3.265625q-0.375 2.3125 -1.265625 3.796875l-1.40625 -0.96875q1.640625 -2.75 1.484375 -7.28125l1.640625 0.21875q0.21875 0.234375 -0.15625 0.453125q0 0.890625 -0.078125 1.859375q0.296875 0.8125 1.421875 1.921875l0 -5.5625l-3.796875 0l0 -1.40625l3.796875 0l0 -2.453125l-3.046875 0l0 -1.40625l3.046875 0l0 -2.375l1.40625 0q0.59375 0.0625 0.078125 0.4375l0 1.9375l2.890625 0l0 1.40625l-2.890625 0l0 2.453125l3.40625 0l0 1.40625l-3.40625 0l0 2.453125l2.671875 0l0 1.40625l-2.671875 0l0 2.75q1.484375 0.8125 3.5625 0.8125l8.15625 0l-0.515625 1.40625zm-0.671875 -15.28125l0 6.96875l-1.484375 0l0 -0.734375l-3.5625 0l0 4.375q0 0.59375 0.515625 0.59375l3.125 0q0.515625 0 0.59375 -0.453125l0.21875 -1.40625l1.5625 0.296875l-0.21875 1.40625q-0.234375 1.5625 -1.78125 1.5625l-4.15625 0q-1.34375 0 -1.34375 -1.265625l0 -6.53125l5.046875 0l0 -3.40625l-5.421875 0l0 -1.40625l6.90625 0zm10.84375 14.546875q0.734375 -0.375 1.546875 -1.125l-8.3125 1.5625q-0.0625 0.53125 -0.359375 0.234375l-0.453125 -1.640625l4.3125 -0.515625l0 -1.34375l-3.5 0l0 -1.1875l3.5 0l0 -1.109375l-1.71875 0l-1.625 0l0 -5.265625l3.34375 0l0 -1.046875l-4.3125 0l0 -1.1875l4.3125 0l0 -0.890625q-1.859375 0.078125 -3.71875 0.15625l-0.21875 -1.265625q3.640625 0 7.796875 -0.8125l0.65625 1.25q0.234375 0.453125 -0.4375 0.15625q-1.5625 0.21875 -2.828125 0.375l0 1.03125l4.09375 0l0 1.1875l-4.09375 0l0 1.046875l3.421875 0l0 5.265625l-3.421875 0l0 1.109375l3.71875 0l0 1.1875l-3.71875 0l0 1.109375l3.71875 -0.59375l0 1.046875q2.15625 -1.9375 2.21875 -5.859375l0.078125 -2.90625l-1.78125 0l0 -1.40625l1.78125 0l0 -3.78125l1.40625 0q0.59375 0.078125 0.078125 0.4375l0 3.34375l3.265625 0l-0.140625 9.796875q-0.078125 2.671875 -1.9375 2.671875l-2.0 0l-0.21875 -1.40625l1.703125 0q0.890625 0 0.96875 -1.5625l0.21875 -8.09375l-1.859375 0l-0.078125 3.5q-0.0625 5.109375 -4.515625 7.9375l-0.890625 -1.40625zm-2.015625 -7.359375l0 1.34375l2.15625 0l0 -1.34375l-2.15625 0zm0 -2.140625l0 1.25l2.15625 0l0 -1.25l-2.15625 0zm-3.328125 2.140625l0 1.34375l2.078125 0l0 -1.34375l-2.078125 0zm0 -2.140625l0 1.25l2.078125 0l0 -1.25l-2.078125 0z" fill-rule="nonzero"></path><path fill="#000000" fill-opacity="0.0" d="m287.9344 267.2979l222.48819 0l0 70.519684l-222.48819 0z" fill-rule="evenodd"></path><path fill="#ffffff" d="m364.5515 289.17102q1.71875 -2.296875 2.3125 -7.71875l1.84375 0.296875q0.671875 0.140625 -0.0625 0.671875q-0.453125 4.75 -2.75 8.015625q-1.703125 2.4375 -6.390625 4.890625l-1.328125 -1.328125q4.234375 -1.9375 6.375 -4.828125zm-6.078125 -2.453125q-1.34375 -2.890625 -2.59375 -4.375l1.625 -0.890625q1.265625 1.5625 2.671875 4.296875l-1.703125 0.96875zm12.5390625 1.40625l0 -1.625l16.546875 0l0 1.625l-16.546875 0zm27.320312 -0.65625q3.1875 2.4375 6.296875 5.640625l-1.484375 1.265625q-3.109375 -3.28125 -6.0 -5.5q-2.90625 3.109375 -6.609375 5.5625l-1.40625 -1.265625q7.859375 -5.109375 10.09375 -10.234375l-8.09375 0.515625l-0.21875 -1.78125l8.609375 -0.375l0.890625 -0.21875l1.1875 1.1875q0.515625 0.515625 -0.296875 0.671875q-1.421875 2.453125 -2.96875 4.53125zm22.785156 1.84375q1.625 2.453125 2.8125 5.65625l-1.5625 0.8125q-0.21875 -0.671875 -0.4375 -1.34375l-6.390625 0.890625q-0.0625 0.53125 -0.359375 0.234375l-0.671875 -1.9375l1.265625 0l1.78125 -6.53125l-2.453125 0l0 -1.640625l8.3125 0l0 1.640625l-4.15625 0l-2.078125 6.453125l4.234375 -0.375q-0.75 -1.921875 -1.484375 -3.1875l1.1875 -0.671875zm1.40625 -7.5625l-6.75 0l0 -1.640625l6.75 0l0 1.640625zm-9.71875 5.421875l-1.484375 0l0 1.625l1.484375 0l0 -1.625zm-2.75 0l-1.484375 0l0 1.625l1.484375 0l0 -1.625zm0 -1.1875l0 -1.484375l-1.484375 0l0 1.484375l1.484375 0zm2.75 0l0 -1.484375l-1.484375 0l0 1.484375l1.484375 0zm2.078125 6.75l-3.5625 0l0 3.1875l-1.265625 0l0 -3.1875l-3.5625 0l0 -1.40625l3.5625 0l0 -1.34375l-1.40625 0l-1.34375 0l0 -6.671875l2.75 0l0 -1.34375l-3.125 0l0 -1.40625l3.125 0l0 -1.859375l1.1875 0q0.59375 0.078125 0.078125 0.453125l0 1.40625l3.03125 0l0 1.40625l-3.03125 0l0 1.34375l2.734375 0l0 6.671875l-2.734375 0l0 1.34375l3.5625 0l0 1.40625zm13.875 -9.65625q-0.96875 -1.484375 -2.234375 -2.4375l1.1875 -1.125q1.640625 1.1875 2.234375 2.375l-1.1875 1.1875zm-3.34375 11.140625l2.53125 -1.484375l0 -4.96875l-2.375 0l0 -1.421875l3.859375 0l0 6.015625q1.703125 1.703125 4.0 1.703125l9.203125 0l-0.375 1.421875l-9.046875 0q-2.453125 0 -4.53125 -2.015625l-2.453125 2.453125l-0.8125 -1.703125zm16.25 -6.53125l-5.046875 0l-0.0625 0.671875q2.96875 1.328125 4.8125 3.03125l-1.03125 1.640625q-2.453125 -2.53125 -4.3125 -3.34375q-1.03125 1.9375 -4.21875 3.78125l-0.890625 -1.546875q3.859375 -1.9375 4.21875 -4.234375l-4.671875 0l0 -1.40625l4.75 0l0 -2.453125l-4.15625 0l0 -1.40625l2.59375 0q-0.8125 -1.421875 -1.921875 -2.453125l1.328125 -0.890625q1.046875 0.96875 1.9375 2.453125l-1.1875 0.890625l2.515625 0l1.78125 -3.71875l1.640625 0.75q0.296875 0.296875 -0.21875 0.359375l-1.71875 2.609375l3.265625 0l0 1.40625l-4.375 0l0 2.453125l4.96875 0l0 1.40625z" fill-rule="nonzero"></path><path fill="#ffffff" d="m328.73746 304.93665q0.828125 -1.703125 2.75 -3.484375l0.8125 0.734375q-1.84375 1.703125 -2.59375 3.265625q-0.8125 1.703125 -0.8125 4.078125q0 2.015625 0.8125 3.796875q0.75 1.625 2.59375 3.640625l-0.8125 0.8125q-1.859375 -2.078125 -2.75 -3.9375q-0.953125 -2.0 -0.953125 -4.3125q0 -2.59375 0.953125 -4.59375z" fill-rule="nonzero"></path><path fill="#ffffff" d="m335.09683 316.2179l0 -9.671875l1.46875 0l0 1.359375q0.453125 -0.71875 1.203125 -1.140625q0.765625 -0.4375 1.71875 -0.4375q1.078125 0 1.765625 0.453125q0.6875 0.4375 0.96875 1.234375q1.15625 -1.6875 2.984375 -1.6875q1.453125 0 2.21875 0.796875q0.78125 0.796875 0.78125 2.453125l0 6.640625l-1.640625 0l0 -6.09375q0 -0.984375 -0.15625 -1.40625q-0.15625 -0.4375 -0.578125 -0.703125q-0.421875 -0.265625 -0.984375 -0.265625q-1.015625 0 -1.6875 0.6875q-0.671875 0.671875 -0.671875 2.15625l0 5.625l-1.640625 0l0 -6.28125q0 -1.09375 -0.40625 -1.640625q-0.40625 -0.546875 -1.3125 -0.546875q-0.6875 0 -1.28125 0.359375q-0.59375 0.359375 -0.859375 1.0625q-0.25 0.703125 -0.25 2.03125l0 5.015625l-1.640625 0zm14.931427 -4.84375q0 -2.6875 1.484375 -3.96875q1.25 -1.078125 3.046875 -1.078125q2.0 0 3.265625 1.3125q1.265625 1.296875 1.265625 3.609375q0 1.859375 -0.5625 2.9375q-0.5625 1.0625 -1.640625 1.65625q-1.0625 0.59375 -2.328125 0.59375q-2.03125 0 -3.28125 -1.296875q-1.25 -1.3125 -1.25 -3.765625zm1.6875 0q0 1.859375 0.796875 2.796875q0.8125 0.921875 2.046875 0.921875q1.21875 0 2.03125 -0.921875q0.8125 -0.9375 0.8125 -2.84375q0 -1.796875 -0.8125 -2.71875q-0.8125 -0.921875 -2.03125 -0.921875q-1.234375 0 -2.046875 0.921875q-0.796875 0.90625 -0.796875 2.765625zm15.563202 4.84375l0 -1.21875q-0.90625 1.4375 -2.703125 1.4375q-1.15625 0 -2.125 -0.640625q-0.96875 -0.640625 -1.5 -1.78125q-0.53125 -1.140625 -0.53125 -2.625q0 -1.453125 0.484375 -2.625q0.484375 -1.1875 1.4375 -1.8125q0.96875 -0.625 2.171875 -0.625q0.875 0 1.546875 0.375q0.6875 0.359375 1.109375 0.953125l0 -4.796875l1.640625 0l0 13.359375l-1.53125 0zm-5.171875 -4.828125q0 1.859375 0.78125 2.78125q0.78125 0.921875 1.84375 0.921875q1.078125 0 1.828125 -0.875q0.75 -0.890625 0.75 -2.6875q0 -1.984375 -0.765625 -2.90625q-0.765625 -0.9375 -1.890625 -0.9375q-1.078125 0 -1.8125 0.890625q-0.734375 0.890625 -0.734375 2.8125zm15.610107 4.828125l0 -1.421875q-1.125 1.640625 -3.0625 1.640625q-0.859375 0 -1.609375 -0.328125q-0.734375 -0.328125 -1.09375 -0.828125q-0.359375 -0.5 -0.5 -1.21875q-0.109375 -0.46875 -0.109375 -1.53125l0 -5.984375l1.640625 0l0 5.359375q0 1.28125 0.109375 1.734375q0.15625 0.640625 0.65625 1.015625q0.5 0.375 1.234375 0.375q0.734375 0 1.375 -0.375q0.65625 -0.390625 0.921875 -1.03125q0.265625 -0.65625 0.265625 -1.890625l0 -5.1875l1.640625 0l0 9.671875l-1.46875 0zm4.000702 0l0 -13.359375l1.640625 0l0 13.359375l-1.640625 0zm10.816711 -3.109375l1.6875 0.203125q-0.40625 1.484375 -1.484375 2.3125q-1.078125 0.8125 -2.765625 0.8125q-2.125 0 -3.375 -1.296875q-1.234375 -1.3125 -1.234375 -3.671875q0 -2.453125 1.25 -3.796875q1.265625 -1.34375 3.265625 -1.34375q1.9375 0 3.15625 1.328125q1.234375 1.3125 1.234375 3.703125q0 0.15625 0 0.4375l-7.21875 0q0.09375 1.59375 0.90625 2.453125q0.8125 0.84375 2.015625 0.84375q0.90625 0 1.546875 -0.46875q0.640625 -0.484375 1.015625 -1.515625zm-5.390625 -2.65625l5.40625 0q-0.109375 -1.21875 -0.625 -1.828125q-0.78125 -0.953125 -2.03125 -0.953125q-1.125 0 -1.90625 0.765625q-0.765625 0.75 -0.84375 2.015625zm7.875702 5.765625l5.125 -13.359375l1.90625 0l5.46875 13.359375l-2.015625 0l-1.546875 -4.046875l-5.59375 0l-1.46875 4.046875l-1.875 0zm3.859375 -5.484375l4.53125 0l-1.40625 -3.703125q-0.625 -1.6875 -0.9375 -2.765625q-0.265625 1.28125 -0.71875 2.546875l-1.46875 3.921875z" fill-rule="nonzero"></path><path fill="#ffffff" d="m421.15076 304.3429q3.046875 3.109375 4.15625 7.5l-1.625 0.65625q-1.34375 -4.8125 -3.859375 -7.1875l1.328125 -0.96875zm-2.21875 5.9375q0 4.296875 -1.265625 5.5625q-0.75 0.75 -1.703125 0.75q-1.421875 0 -2.828125 -1.640625l0.96875 -1.328125q1.1875 1.1875 1.78125 1.1875q0.375 0 0.671875 -0.296875q0.8125 -0.828125 0.8125 -4.53125q0 -2.078125 -0.453125 -2.53125q-0.21875 -0.21875 -0.890625 -0.21875q-0.65625 0 -1.84375 0.15625q-1.5625 5.484375 -3.71875 9.421875l-1.703125 -0.59375q2.15625 -3.34375 3.78125 -8.6875q-1.625 0.21875 -3.1875 0.375l-0.15625 -1.640625q1.34375 0 3.71875 -0.21875q0.671875 -2.296875 1.109375 -4.671875l1.5625 0.515625q0.890625 0.375 -0.078125 0.671875q-0.4375 1.5625 -0.890625 3.34375q0.890625 -0.15625 1.859375 -0.15625q1.03125 0 1.5625 0.515625q0.890625 0.890625 0.890625 4.015625zm4.15625 -9.796875q1.328125 0.734375 2.96875 2.078125l-0.890625 0.890625q-1.640625 -1.265625 -2.96875 -2.078125l0.890625 -0.890625zm0.515625 4.75q-1.703125 -1.40625 -2.890625 -2.15625l0.890625 -0.890625q1.328125 0.75 2.96875 2.078125l-0.96875 0.96875zm16.703125 8.390625l-1.484375 0l0 -10.328125l1.40625 0q0.59375 0.078125 0.078125 0.453125l0 9.875zm-3.265625 -10.84375q-0.375 1.1875 -1.484375 2.828125l-1.5625 -0.828125q0.96875 -1.328125 1.625 -3.109375l1.421875 0.515625q0.734375 0.296875 0 0.59375zm-7.5 2.671875q-0.671875 -1.703125 -1.484375 -2.75l1.484375 -0.8125q0.96875 1.046875 1.625 2.75l-1.625 0.8125zm7.5 11.140625q0 0.96875 -0.96875 0.96875l-1.703125 0l-0.234375 -1.421875l1.125 0q0.296875 0 0.296875 -0.296875l0 -2.453125l-5.796875 0l0 4.234375l-1.484375 0l0 -11.5l3.5625 0l0 -5.203125l1.40625 0q0.59375 0.078125 0.078125 0.453125l0 4.75l3.71875 0l0 10.46875zm-7.28125 -4.609375l5.796875 0l0 -1.484375l-5.796875 0l0 1.484375zm5.796875 -4.453125l-5.796875 0l0 1.5625l5.796875 0l0 -1.5625zm6.59375 -6.15625l1.421875 0q0.59375 0.078125 0.0625 0.4375l0 14.703125q0 1.046875 -0.953125 1.046875l-1.859375 0l-0.21875 -1.421875l1.25 0q0.296875 0 0.296875 -0.296875l0 -14.46875zm15.078125 1.109375q-1.640625 3.125 -5.125 5.34375l-0.890625 -1.40625l-0.453125 1.109375q1.484375 1.859375 1.484375 4.234375q0 3.046875 -1.703125 3.046875l-1.265625 0l-0.140625 -1.421875l0.890625 0q0.8125 0 0.8125 -1.78125q0 -1.703125 -1.5625 -4.078125l1.71875 -4.59375l-2.3125 0l0 14.921875l-1.484375 0l0 -16.34375l4.53125 0l0.15625 -0.140625l1.03125 1.03125q0.375 0.375 -0.140625 0.453125l-1.421875 3.34375q3.421875 -1.640625 5.125 -5.34375l1.859375 0.21875q0.296875 0.296875 -0.21875 0.375l-0.078125 0.140625q2.0 2.890625 5.5625 4.3125l-0.8125 1.625q-3.640625 -1.703125 -5.5625 -5.046875zm3.484375 9.578125q1.109375 1.625 2.96875 3.1875l-1.1875 1.1875q-1.640625 -1.265625 -3.046875 -3.640625l1.265625 -0.734375zm-3.640625 -3.9375l-2.8125 0l0 -1.40625l6.75 0l0 1.40625l-2.453125 0l0 1.78125l4.15625 0l0 1.40625l-4.15625 0l0 5.0625q0 1.25 -1.265625 1.25l-1.25 0l-0.296875 -1.40625l1.109375 0q0.21875 0 0.21875 -0.21875l0 -4.6875l-4.53125 0l0 -1.40625l4.53125 0l0 -1.78125zm-1.484375 4.609375q0.515625 0.359375 -0.140625 0.515625q-0.96875 1.859375 -2.75 3.484375l-1.109375 -1.109375q1.921875 -1.5625 2.734375 -3.5625l1.265625 0.671875zm13.953125 1.109375q-0.890625 1.859375 -2.75 3.9375l-0.8125 -0.8125q1.859375 -2.015625 2.59375 -3.640625q0.828125 -1.78125 0.828125 -3.796875q0 -2.375 -0.828125 -4.078125q-0.734375 -1.5625 -2.59375 -3.265625l0.8125 -0.734375q1.9375 1.78125 2.75 3.484375q0.96875 2.0 0.96875 4.59375q0 2.3125 -0.96875 4.3125z" fill-rule="nonzero"></path><path fill="#000000" fill-opacity="0.0" d="m574.07874 267.2979l157.60632 0l0 44.81888l-157.60632 0z" fill-rule="evenodd"></path><path fill="#ffffff" d="m594.1756 294.2179l0 -13.359375l1.8125 0l7.015625 10.484375l0 -10.484375l1.6875 0l0 13.359375l-1.8125 0l-7.015625 -10.5l0 10.5l-1.6875 0zm12.676086 -4.84375q0 -2.6875 1.484375 -3.96875q1.25 -1.078125 3.046875 -1.078125q2.0 0 3.265625 1.3125q1.265625 1.296875 1.265625 3.609375q0 1.859375 -0.5625 2.9375q-0.5625 1.0625 -1.640625 1.65625q-1.0625 0.59375 -2.328125 0.59375q-2.03125 0 -3.28125 -1.296875q-1.25 -1.3125 -1.25 -3.765625zm1.6875 0q0 1.859375 0.796875 2.796875q0.8125 0.921875 2.046875 0.921875q1.21875 0 2.03125 -0.921875q0.8125 -0.9375 0.8125 -2.84375q0 -1.796875 -0.8125 -2.71875q-0.8125 -0.921875 -2.03125 -0.921875q-1.234375 0 -2.046875 0.921875q-0.796875 0.90625 -0.796875 2.765625zm15.563171 4.84375l0 -1.21875q-0.90625 1.4375 -2.703125 1.4375q-1.15625 0 -2.125 -0.640625q-0.96875 -0.640625 -1.5 -1.78125q-0.53125 -1.140625 -0.53125 -2.625q0 -1.453125 0.484375 -2.625q0.484375 -1.1875 1.4375 -1.8125q0.96875 -0.625 2.171875 -0.625q0.875 0 1.546875 0.375q0.6875 0.359375 1.109375 0.953125l0 -4.796875l1.640625 0l0 13.359375l-1.53125 0zm-5.171875 -4.828125q0 1.859375 0.78125 2.78125q0.78125 0.921875 1.84375 0.921875q1.078125 0 1.828125 -0.875q0.75 -0.890625 0.75 -2.6875q0 -1.984375 -0.765625 -2.90625q-0.765625 -0.9375 -1.890625 -0.9375q-1.078125 0 -1.8125 0.890625q-0.734375 0.890625 -0.734375 2.8125zm15.906982 1.71875l1.6875 0.203125q-0.40625 1.484375 -1.484375 2.3125q-1.078125 0.8125 -2.765625 0.8125q-2.125 0 -3.375 -1.296875q-1.234375 -1.3125 -1.234375 -3.671875q0 -2.453125 1.25 -3.796875q1.265625 -1.34375 3.265625 -1.34375q1.9375 0 3.15625 1.328125q1.234375 1.3125 1.234375 3.703125q0 0.15625 0 0.4375l-7.21875 0q0.09375 1.59375 0.90625 2.453125q0.8125 0.84375 2.015625 0.84375q0.90625 0 1.546875 -0.46875q0.640625 -0.484375 1.015625 -1.515625zm-5.390625 -2.65625l5.40625 0q-0.109375 -1.21875 -0.625 -1.828125q-0.78125 -0.953125 -2.03125 -0.953125q-1.125 0 -1.90625 0.765625q-0.765625 0.75 -0.84375 2.015625zm9.594482 5.765625l0 -1.875l1.875 0l0 1.875l-1.875 0zm4.7145386 -11.453125l0 -1.90625l1.640625 0l0 1.90625l-1.640625 0zm-2.078125 15.203125l0.3125 -1.390625q0.5 0.125 0.78125 0.125q0.5 0 0.734375 -0.328125q0.25 -0.328125 0.25 -1.671875l0 -10.15625l1.640625 0l0 10.203125q0 1.78125 -0.46875 2.484375q-0.59375 0.90625 -1.96875 0.90625q-0.65625 0 -1.28125 -0.171875zm5.5823364 -6.640625l1.625 -0.25q0.125 0.96875 0.75 1.5q0.625 0.515625 1.75 0.515625q1.125 0 1.671875 -0.453125q0.546875 -0.46875 0.546875 -1.09375q0 -0.546875 -0.484375 -0.875q-0.328125 -0.21875 -1.671875 -0.546875q-1.8125 -0.46875 -2.515625 -0.796875q-0.6875 -0.328125 -1.046875 -0.90625q-0.359375 -0.59375 -0.359375 -1.3125q0 -0.640625 0.296875 -1.1875q0.296875 -0.5625 0.8125 -0.921875q0.375 -0.28125 1.03125 -0.46875q0.671875 -0.203125 1.421875 -0.203125q1.140625 0 2.0 0.328125q0.859375 0.328125 1.265625 0.890625q0.421875 0.5625 0.578125 1.5l-1.609375 0.21875q-0.109375 -0.75 -0.640625 -1.171875q-0.515625 -0.421875 -1.46875 -0.421875q-1.140625 0 -1.625 0.375q-0.46875 0.375 -0.46875 0.875q0 0.3125 0.1875 0.578125q0.203125 0.265625 0.640625 0.4375q0.234375 0.09375 1.4375 0.421875q1.75 0.453125 2.4375 0.75q0.6875 0.296875 1.078125 0.859375q0.390625 0.5625 0.390625 1.40625q0 0.828125 -0.484375 1.546875q-0.46875 0.71875 -1.375 1.125q-0.90625 0.390625 -2.046875 0.390625q-1.875 0 -2.875 -0.78125q-0.984375 -0.78125 -1.25 -2.328125z" fill-rule="nonzero"></path><path fill="#ffffff" d="m669.6663 294.06165q0.296875 0 0.296875 -0.296875l0 -2.4375l-9.046875 0l0 4.375l-1.484375 0l0 -4.375l-2.453125 0l0 -1.421875l2.453125 0l0 -6.671875l5.265625 0l0 -1.9375l-7.28125 0l0 -1.40625l16.03125 0l0 1.40625l-7.265625 0l0 1.9375l5.265625 0l0 6.671875l2.53125 0l0 1.421875l-2.53125 0l0 3.1875q0 0.96875 -1.03125 0.96875l-2.53125 0l-0.296875 -1.421875l2.078125 0zm0.296875 -7.484375l0 -1.9375l-3.78125 0l0 1.9375l3.78125 0zm-5.265625 0l0 -1.9375l-3.78125 0l0 1.9375l3.78125 0zm5.265625 3.328125l0 -1.921875l-3.78125 0l0 1.921875l3.78125 0zm-5.265625 0l0 -1.921875l-3.78125 0l0 1.921875l3.78125 0zm27.90625 5.421875l-8.015625 0q-3.9375 0 -6.3125 -3.265625q-0.375 2.3125 -1.265625 3.796875l-1.40625 -0.96875q1.640625 -2.75 1.484375 -7.28125l1.640625 0.21875q0.21875 0.234375 -0.15625 0.453125q0 0.890625 -0.078125 1.859375q0.296875 0.8125 1.421875 1.921875l0 -5.5625l-3.796875 0l0 -1.40625l3.796875 0l0 -2.453125l-3.046875 0l0 -1.40625l3.046875 0l0 -2.375l1.40625 0q0.59375 0.0625 0.078125 0.4375l0 1.9375l2.890625 0l0 1.40625l-2.890625 0l0 2.453125l3.40625 0l0 1.40625l-3.40625 0l0 2.453125l2.671875 0l0 1.40625l-2.671875 0l0 2.75q1.484375 0.8125 3.5625 0.8125l8.15625 0l-0.515625 1.40625zm-0.671875 -15.28125l0 6.96875l-1.484375 0l0 -0.734375l-3.5625 0l0 4.375q0 0.59375 0.515625 0.59375l3.125 0q0.515625 0 0.59375 -0.453125l0.21875 -1.40625l1.5625 0.296875l-0.21875 1.40625q-0.234375 1.5625 -1.78125 1.5625l-4.15625 0q-1.34375 0 -1.34375 -1.265625l0 -6.53125l5.046875 0l0 -3.40625l-5.421875 0l0 -1.40625l6.90625 0zm10.84375 14.546875q0.734375 -0.375 1.546875 -1.125l-8.3125 1.5625q-0.0625 0.53125 -0.359375 0.234375l-0.453125 -1.640625l4.3125 -0.515625l0 -1.34375l-3.5 0l0 -1.1875l3.5 0l0 -1.109375l-1.71875 0l-1.625 0l0 -5.265625l3.34375 0l0 -1.046875l-4.3125 0l0 -1.1875l4.3125 0l0 -0.890625q-1.859375 0.078125 -3.71875 0.15625l-0.21875 -1.265625q3.640625 0 7.796875 -0.8125l0.65625 1.25q0.234375 0.453125 -0.4375 0.15625q-1.5625 0.21875 -2.828125 0.375l0 1.03125l4.09375 0l0 1.1875l-4.09375 0l0 1.046875l3.421875 0l0 5.265625l-3.421875 0l0 1.109375l3.71875 0l0 1.1875l-3.71875 0l0 1.109375l3.71875 -0.59375l0 1.046875q2.15625 -1.9375 2.21875 -5.859375l0.078125 -2.90625l-1.78125 0l0 -1.40625l1.78125 0l0 -3.78125l1.40625 0q0.59375 0.078125 0.078125 0.4375l0 3.34375l3.265625 0l-0.140625 9.796875q-0.078125 2.671875 -1.9375 2.671875l-2.0 0l-0.21875 -1.40625l1.703125 0q0.890625 0 0.96875 -1.5625l0.21875 -8.09375l-1.859375 0l-0.078125 3.5q-0.0625 5.109375 -4.515625 7.9375l-0.890625 -1.40625zm-2.015625 -7.359375l0 1.34375l2.15625 0l0 -1.34375l-2.15625 0zm0 -2.140625l0 1.25l2.15625 0l0 -1.25l-2.15625 0zm-3.328125 2.140625l0 1.34375l2.078125 0l0 -1.34375l-2.078125 0zm0 -2.140625l0 1.25l2.078125 0l0 -1.25l-2.078125 0z" fill-rule="nonzero"></path><path fill="#000000" fill-opacity="0.0" d="m652.8819 267.2979l0 -60.81891" fill-rule="evenodd"></path><path stroke="#ffffff" stroke-width="1.0" stroke-linejoin="round" stroke-linecap="butt" d="m652.8819 267.2979l0 -57.39183" fill-rule="evenodd"></path><path fill="#ffffff" stroke="#ffffff" stroke-width="1.0" stroke-linecap="butt" d="m652.8819 209.90608l1.1245728 1.124588l-1.1245728 -3.0897675l-1.1245728 3.0897675z" fill-rule="evenodd"></path><path fill="#000000" fill-opacity="0.0" d="m399.17847 267.2979l0.25198364 -60.81891" fill-rule="evenodd"></path><path stroke="#ffffff" stroke-width="1.0" stroke-linejoin="round" stroke-linecap="butt" d="m399.17847 267.2979l0.23779297 -57.391846" fill-rule="evenodd"></path><path fill="#ffffff" stroke="#ffffff" stroke-width="1.0" stroke-linecap="butt" d="m399.41626 209.90607l1.1199036 1.1292267l-1.1117859 -3.0944061l-1.1373596 3.085083z" fill-rule="evenodd"></path><path fill="#000000" fill-opacity="0.0" d="m145.47769 267.2979l0.47244263 -60.81891" fill-rule="evenodd"></path><path stroke="#ffffff" stroke-width="1.0" stroke-linejoin="round" stroke-linecap="butt" d="m145.47769 267.2979l0.4458313 -57.391922" fill-rule="evenodd"></path><path fill="#ffffff" stroke="#ffffff" stroke-width="1.0" stroke-linecap="butt" d="m145.92351 209.90599l1.1158142 1.1332855l-1.1005402 -3.0984192l-1.1485596 3.0809479z" fill-rule="evenodd"></path><path fill="#0b5394" d="m513.7887 194.1273l0 0c0 -6.827469 5.53479 -12.362213 12.362244 -12.362213l0 0c3.2786255 0 6.4230347 1.3024445 8.741394 3.6208038c2.3183594 2.3183594 3.6207886 5.462738 3.6207886 8.741409l0 0c0 6.8274536 -5.534729 12.362198 -12.362183 12.362198l0 0c-6.8274536 0 -12.362244 -5.5347443 -12.362244 -12.362198z" fill-rule="evenodd"></path><path stroke="#ffffff" stroke-width="1.0" stroke-linejoin="round" stroke-linecap="butt" d="m513.7887 194.1273l0 0c0 -6.827469 5.53479 -12.362213 12.362244 -12.362213l0 0c3.2786255 0 6.4230347 1.3024445 8.741394 3.6208038c2.3183594 2.3183594 3.6207886 5.462738 3.6207886 8.741409l0 0c0 6.8274536 -5.534729 12.362198 -12.362183 12.362198l0 0c-6.8274536 0 -12.362244 -5.5347443 -12.362244 -12.362198z" fill-rule="evenodd"></path><path fill="#000000" fill-opacity="0.0" d="m399.42783 12.912073l253.44882 0l0 70.519684l-253.44882 0z" fill-rule="evenodd"></path><path fill="#ffffff" d="m492.4198 32.8477q-0.671875 0.59375 -1.40625 1.1875q0.734375 0.53125 1.484375 1.1875l-1.046875 1.421875q-1.109375 -1.265625 -2.515625 -2.53125l0 7.421875l-1.484375 0l0 -7.421875q-1.109375 1.109375 -2.453125 2.15625l-0.734375 -1.5625q3.265625 -2.453125 5.265625 -5.562502l-4.671875 0l0 -1.40625l2.59375 0l0 -3.5l1.40625 0q0.59375 0.078125 0.078125 0.453125l0 3.046875l1.40625 0l0.453125 -0.453125l0.953125 0.96875q0.296875 0.515625 -0.296875 0.515625q-0.953125 2.0 -2.59375 3.859377l1.109375 0.671875q0.890625 -0.890625 1.484375 -1.7031269l1.34375 1.0312519q0.078125 0.375 -0.375 0.21875zm6.609375 -4.890627l-2.96875 0l0 4.375002q0 5.859375 -5.125 8.84375l-0.96875 -1.421875q4.609375 -2.296875 4.609375 -7.203125l0 -4.593752l-2.296875 0l0 -1.40625l8.234375 0l0 9.203127q0 5.421875 -2.671875 5.421875l-2.15625 0l-0.21875 -1.421875l2.0 0q1.5625 0 1.5625 -4.0l0 -7.796877zm12.25 4.296877q0.140625 5.640625 -4.828125 8.765625l-1.265625 -1.40625q4.375 -2.375 4.375 -6.6875l0 -3.187502l1.5625 0q0.671875 0.078125 0.15625 0.515625l0 1.9375019q2.671875 -2.015627 4.078125 -3.937502l-12.09375 0.4375l-0.15625 -1.703125l13.515625 -0.375l0.515625 -0.140625l1.109375 1.328125q0.21875 0.296875 -0.375 0.234375q-2.21875 2.890625 -5.34375 5.406252l-1.25 -1.1875zm21.820312 -2.593752q-1.421875 8.093752 -9.28125 11.578127l-1.34375 -1.40625q7.28125 -2.96875 8.765625 -10.250002l-5.9375 0q-1.703125 2.828127 -3.5625 4.531252l-1.484375 -0.96875q3.859375 -3.484377 4.96875 -8.156252l1.703125 0.59375q0.453125 0.21875 -0.140625 0.4375q-0.296875 0.96875 -0.8125 1.9375l5.34375 0l0.65625 -0.375l1.34375 1.34375q0.515625 0.515625 -0.21875 0.734375zm17.429688 1.046875q-2.21875 3.265627 -3.78125 5.343752l-1.40625 -0.96875q1.625 -2.0 3.046875 -4.156252l-6.171875 1.1093769l0 5.5q0 1.03125 1.046875 1.03125l6.828125 0l-0.21875 1.640625l-7.0625 0q-2.296875 0 -2.296875 -2.375l0 -5.5l-4.453125 0.890625l-0.59375 -1.7031269l5.046875 -0.890625l0 -4.90625l1.5625 0q0.671875 0.15625 0.140625 0.59375l0 4.09375l6.6875 -1.125l0.59375 -0.359375l1.328125 1.328125q0.296875 0.375 -0.296875 0.453125zm11.3671875 2.375002q3.1875 2.4375 6.296875 5.640625l-1.484375 1.265625q-3.109375 -3.28125 -6.0 -5.5q-2.90625 3.109375 -6.609375 5.5625l-1.40625 -1.265625q7.859375 -5.109375 10.09375 -10.234377l-8.09375 0.515625l-0.21875 -1.78125l8.609375 -0.375l0.890625 -0.21875l1.1875 1.1875q0.515625 0.515625 -0.296875 0.671875q-1.421875 2.453125 -2.96875 4.531252z" fill-rule="nonzero"></path><path fill="#ea9999" d="m432.26407 50.550823q0.828125 -1.703125 2.75 -3.484375l0.8125 0.734375q-1.84375 1.703125 -2.59375 3.265625q-0.8125 1.703125 -0.8125 4.078125q0 2.015625 0.8125 3.796875q0.75 1.625 2.59375 3.640625l-0.8125 0.8125q-1.859375 -2.078125 -2.75 -3.9375q-0.953125 -2.0 -0.953125 -4.3125q0 -2.59375 0.953125 -4.59375z" fill-rule="nonzero"></path><path fill="#ea9999" d="m438.62344 61.832073l0 -9.671875l1.46875 0l0 1.359375q0.453125 -0.71875 1.203125 -1.140625q0.765625 -0.4375 1.71875 -0.4375q1.078125 0 1.765625 0.453125q0.6875 0.4375 0.96875 1.234375q1.15625 -1.6875 2.984375 -1.6875q1.453125 0 2.21875 0.796875q0.78125 0.796875 0.78125 2.453125l0 6.640625l-1.640625 0l0 -6.09375q0 -0.984375 -0.15625 -1.40625q-0.15625 -0.4375 -0.578125 -0.703125q-0.421875 -0.265625 -0.984375 -0.265625q-1.015625 0 -1.6875 0.6875q-0.671875 0.671875 -0.671875 2.15625l0 5.625l-1.640625 0l0 -6.28125q0 -1.09375 -0.40625 -1.640625q-0.40625 -0.546875 -1.3125 -0.546875q-0.6875 0 -1.28125 0.359375q-0.59375 0.359375 -0.859375 1.0625q-0.25 0.703125 -0.25 2.03125l0 5.015625l-1.640625 0zm14.931427 -4.84375q0 -2.6875 1.484375 -3.96875q1.25 -1.078125 3.046875 -1.078125q2.0 0 3.265625 1.3125q1.265625 1.296875 1.265625 3.609375q0 1.859375 -0.5625 2.9375q-0.5625 1.0625 -1.640625 1.65625q-1.0625 0.59375 -2.328125 0.59375q-2.03125 0 -3.28125 -1.296875q-1.25 -1.3125 -1.25 -3.765625zm1.6875 0q0 1.859375 0.796875 2.796875q0.8125 0.921875 2.046875 0.921875q1.21875 0 2.03125 -0.921875q0.8125 -0.9375 0.8125 -2.84375q0 -1.796875 -0.8125 -2.71875q-0.8125 -0.921875 -2.03125 -0.921875q-1.234375 0 -2.046875 0.921875q-0.796875 0.90625 -0.796875 2.765625zm15.563232 4.84375l0 -1.21875q-0.90625 1.4375 -2.703125 1.4375q-1.15625 0 -2.125 -0.640625q-0.96875 -0.640625 -1.5 -1.78125q-0.53125 -1.140625 -0.53125 -2.625q0 -1.453125 0.484375 -2.625q0.484375 -1.1875 1.4375 -1.8125q0.96875 -0.625 2.171875 -0.625q0.875 0 1.546875 0.375q0.6875 0.359375 1.109375 0.953125l0 -4.796875l1.640625 0l0 13.359375l-1.53125 0zm-5.171875 -4.828125q0 1.859375 0.78125 2.78125q0.78125 0.921875 1.84375 0.921875q1.078125 0 1.828125 -0.875q0.75 -0.890625 0.75 -2.6875q0 -1.984375 -0.765625 -2.90625q-0.765625 -0.9375 -1.890625 -0.9375q-1.078125 0 -1.8125 0.890625q-0.734375 0.890625 -0.734375 2.8125zm15.610077 4.828125l0 -1.421875q-1.125 1.640625 -3.0625 1.640625q-0.859375 0 -1.609375 -0.328125q-0.734375 -0.328125 -1.09375 -0.828125q-0.359375 -0.5 -0.5 -1.21875q-0.109375 -0.46875 -0.109375 -1.53125l0 -5.984375l1.640625 0l0 5.359375q0 1.28125 0.109375 1.734375q0.15625 0.640625 0.65625 1.015625q0.5 0.375 1.234375 0.375q0.734375 0 1.375 -0.375q0.65625 -0.390625 0.921875 -1.03125q0.265625 -0.65625 0.265625 -1.890625l0 -5.1875l1.640625 0l0 9.671875l-1.46875 0zm4.0007324 0l0 -13.359375l1.640625 0l0 13.359375l-1.640625 0zm10.816681 -3.109375l1.6875 0.203125q-0.40625 1.484375 -1.484375 2.3125q-1.078125 0.8125 -2.765625 0.8125q-2.125 0 -3.375 -1.296875q-1.234375 -1.3125 -1.234375 -3.671875q0 -2.453125 1.25 -3.796875q1.265625 -1.34375 3.265625 -1.34375q1.9375 0 3.15625 1.328125q1.234375 1.3125 1.234375 3.703125q0 0.15625 0 0.4375l-7.21875 0q0.09375 1.59375 0.90625 2.453125q0.8125 0.84375 2.015625 0.84375q0.90625 0 1.546875 -0.46875q0.640625 -0.484375 1.015625 -1.515625zm-5.390625 -2.65625l5.40625 0q-0.109375 -1.21875 -0.625 -1.828125q-0.78125 -0.953125 -2.03125 -0.953125q-1.125 0 -1.90625 0.765625q-0.765625 0.75 -0.84375 2.015625zm7.8757324 5.765625l5.125 -13.359375l1.90625 0l5.46875 13.359375l-2.015625 0l-1.546875 -4.046875l-5.59375 0l-1.46875 4.046875l-1.875 0zm3.859375 -5.484375l4.53125 0l-1.40625 -3.703125q-0.625 -1.6875 -0.9375 -2.765625q-0.265625 1.28125 -0.71875 2.546875l-1.46875 3.921875z" fill-rule="nonzero"></path><path fill="#ea9999" d="m530.1576 60.56645l-1.703125 0l0 -0.8125l-8.234375 0l0 1.1875l-1.71875 0l0 -11.578125l11.65625 0l0 11.203125zm-9.9375 -9.578125l0 7.125l8.234375 0l0 -7.125l-8.234375 0zm13.277344 4.75l0 -1.625l16.546875 0l0 1.625l-16.546875 0zm27.757812 1.71875q-3.9375 -2.015625 -6.453125 -2.671875l0 7.71875l-1.703125 0l0 -14.84375l1.484375 0q0.890625 0.0625 0.21875 0.59375l0 4.671875q3.640625 1.03125 7.34375 2.8125l-0.890625 1.71875zm-0.140625 -6.53125q-1.265625 -1.5625 -2.53125 -2.53125l0.96875 -0.734375q1.265625 0.953125 2.515625 2.515625l-0.953125 0.75zm1.78125 -1.421875q-0.96875 -1.25 -2.453125 -2.4375l0.96875 -0.75q1.25 0.890625 2.4375 2.453125l-0.953125 0.734375zm17.214844 9.203125l0 1.640625l-14.765625 0l0 -1.640625l6.453125 0l0 -7.34375l-5.203125 0l0 -1.625l12.03125 0l0 1.625l-5.125 0l0 7.34375l6.609375 0zm5.2617188 3.203125q7.203125 -1.859375 8.09375 -7.796875l-11.28125 0l0 -1.640625l11.359375 0l0.671875 -0.21875l1.328125 0.8125q0.453125 0.375 -0.140625 0.671875q-1.1875 7.421875 -8.6875 9.65625l-1.34375 -1.484375zm8.390625 -12.03125l-10.234375 0l0 -1.625l10.234375 0l0 1.625zm3.7851562 5.859375l0 -1.625l16.546875 0l0 1.625l-16.546875 0zm22.414062 3.71875q-0.890625 1.859375 -2.75 3.9375l-0.8125 -0.8125q1.859375 -2.015625 2.59375 -3.640625q0.828125 -1.78125 0.828125 -3.796875q0 -2.375 -0.828125 -4.078125q-0.734375 -1.5625 -2.59375 -3.265625l0.8125 -0.734375q1.9375 1.78125 2.75 3.484375q0.96875 2.0 0.96875 4.59375q0 2.3125 -0.96875 4.3125z" fill-rule="nonzero"></path><path fill="#000000" fill-opacity="0.0" d="m526.15094 83.43438l0 98.33071" fill-rule="evenodd"></path><path stroke="#ffffff" stroke-width="1.0" stroke-linejoin="round" stroke-linecap="butt" d="m526.15094 83.43438l0 94.90363" fill-rule="evenodd"></path><path fill="#ffffff" stroke="#ffffff" stroke-width="1.0" stroke-linecap="butt" d="m526.15094 178.33801l-1.1246338 -1.124588l1.1246338 3.0897675l1.1245728 -3.0897675z" fill-rule="evenodd"></path></g></svg>

