<?xml version="1.0" encoding="UTF-8" standalone="no"?>
<svg
   xmlns:dc="http://purl.org/dc/elements/1.1/"
   xmlns:cc="http://creativecommons.org/ns#"
   xmlns:rdf="http://www.w3.org/1999/02/22-rdf-syntax-ns#"
   xmlns:svg="http://www.w3.org/2000/svg"
   xmlns="http://www.w3.org/2000/svg"
   xmlns:sodipodi="http://sodipodi.sourceforge.net/DTD/sodipodi-0.dtd"
   xmlns:inkscape="http://www.inkscape.org/namespaces/inkscape"
   version="1.1"
   id="svg2"
   viewBox="0 0 640.00001 480.00001"
   height="480"
   width="640"
   inkscape:version="0.91 r13725"
   sodipodi:docname="hiring2.svg">
  <sodipodi:namedview
     pagecolor="#ffffff"
     bordercolor="#666666"
     borderopacity="1"
     objecttolerance="10"
     gridtolerance="10"
     guidetolerance="10"
     inkscape:pageopacity="0"
     inkscape:pageshadow="2"
     inkscape:window-width="1366"
     inkscape:window-height="719"
     id="namedview4228"
     showgrid="false"
     inkscape:zoom="1.2321335"
     inkscape:cx="265.06436"
     inkscape:cy="254.60771"
     inkscape:window-x="0"
     inkscape:window-y="24"
     inkscape:window-maximized="1"
     inkscape:current-layer="svg2"
     units="px" />
  <defs
     id="defs4" />
  <metadata
     id="metadata7">
    <rdf:RDF>
      <cc:Work
         rdf:about="">
        <dc:format>image/svg+xml</dc:format>
        <dc:type
           rdf:resource="http://purl.org/dc/dcmitype/StillImage" />
        <dc:title></dc:title>
      </cc:Work>
    </rdf:RDF>
  </metadata>
  <g
     transform="matrix(0.96592583,-0.25881905,0.25881905,0.96592583,0,0)"
     style="font-style:normal;font-weight:normal;font-size:40px;line-height:125%;font-family:sans-serif;text-align:center;letter-spacing:0px;word-spacing:0px;text-anchor:middle;fill:#f29600;fill-opacity:0.47058824;stroke:#f29600;stroke-width:4;stroke-linecap:round;stroke-linejoin:round;stroke-miterlimit:4;stroke-dasharray:none;stroke-opacity:0.94117647"
     id="text4136">
    <path
       d="m 190.50233,216.20538 q -3.86718,10.8545 -12.04101,35.63965 -3.55957,11.51367 -9.44824,31.86035 l -15.77637,0 q -2.19727,-9.22851 -7.91016,-31.50879 -3.60351,11.46973 -9.71191,31.50879 l -15.55664,0 q -2.8125,-10.06347 -9.62402,-32.87109 -3.99903,-12.52441 -11.821294,-34.62891 l 29.970704,0 q 0.92285,4.30664 3.25195,13.93067 l 4.65821,17.57812 q 1.27441,-3.64746 3.77929,-12.70019 -2.06543,-7.69043 -5.27344,-18.8086 l 27.2461,0 q 0.70312,4.21875 2.3291,13.667 1.18652,6.28418 3.25195,17.84179 l 4.52637,-17.92969 q 1.23047,-5.09765 2.85645,-13.5791 l 15.29296,0 z"
       style="font-style:normal;font-variant:normal;font-weight:normal;font-stretch:normal;font-size:90px;font-family:'Showcard Gothic';-inkscape-font-specification:'Showcard Gothic';fill:#f29600;fill-opacity:0.47058824;stroke:#f29600;stroke-width:4;stroke-linecap:round;stroke-linejoin:round;stroke-miterlimit:4;stroke-dasharray:none;stroke-opacity:0.94117647"
       id="path4155" />
    <path
       d="m 238.97401,216.20538 -1.88964,27.81739 q -1.62598,-0.26368 -7.03125,-0.92286 -3.69141,-0.35156 -8.08594,-0.43945 l -0.65918,8.39356 q 4.83398,0.13183 15.77637,-0.21973 -0.4834,1.62598 -1.53809,6.06445 -0.61523,2.68067 -1.09863,6.19629 -1.27442,-0.30762 -6.37207,-0.79101 -2.37305,-0.13184 -7.03125,-0.0879 l -0.43946,9.7998 q 3.2959,-0.044 12.12891,-0.57129 1.66992,-0.13183 5.49316,-1.05469 -0.35156,1.36231 -1.62597,6.54786 -0.61524,2.68066 -1.49414,6.76757 l -39.33106,0 -1.27441,-34.45312 q -0.35156,-11.82129 -1.71387,-33.04688 l 46.18652,0 z"
       style="font-style:normal;font-variant:normal;font-weight:normal;font-stretch:normal;font-size:90px;font-family:'Showcard Gothic';-inkscape-font-specification:'Showcard Gothic';fill:#f29600;fill-opacity:0.47058824;stroke:#f29600;stroke-width:4;stroke-linecap:round;stroke-linejoin:round;stroke-miterlimit:4;stroke-dasharray:none;stroke-opacity:0.94117647"
       id="path4157" />
    <path
       d="m 257.03554,216.20538 -0.65918,31.4209 -9.27246,0 -0.79102,-31.4209 10.72266,0 z"
       style="font-style:normal;font-variant:normal;font-weight:normal;font-stretch:normal;font-size:90px;font-family:'Showcard Gothic';-inkscape-font-specification:'Showcard Gothic';fill:#f29600;fill-opacity:0.47058824;stroke:#f29600;stroke-width:4;stroke-linecap:round;stroke-linejoin:round;stroke-miterlimit:4;stroke-dasharray:none;stroke-opacity:0.94117647"
       id="path4159" />
    <path
       d="m 323.17323,241.47394 q 0,8.08594 -4.52636,14.32617 -3.99903,5.44922 -10.01954,7.82227 1.27442,1.97753 6.28418,8.30566 2.50489,2.90039 7.64649,7.64648 -2.06543,0.74707 -9.09668,3.7793 -4.92188,2.24121 -9.27246,4.39453 -1.27442,-1.58203 -5.66895,-8.17383 -2.02148,-3.33984 -5.93261,-11.25 l -0.0879,0 -0.43945,15.38086 -24.74121,0 q -0.4834,-9.58007 -1.3623,-31.59668 -0.39551,-12.96386 -1.80176,-35.90332 12.08496,-1.27441 22.06055,-1.27441 36.958,0 36.958,26.54297 z m -19.95117,9.49219 q 0,-4.17481 -3.51562,-5.97657 -2.59278,-1.31836 -6.50391,-1.14258 l -0.26367,15.0293 q 3.64746,0 6.5039,-1.62597 3.7793,-2.10938 3.7793,-6.28418 z"
       style="font-style:normal;font-variant:normal;font-weight:normal;font-stretch:normal;font-size:90px;font-family:'Showcard Gothic';-inkscape-font-specification:'Showcard Gothic';fill:#f29600;fill-opacity:0.47058824;stroke:#f29600;stroke-width:4;stroke-linecap:round;stroke-linejoin:round;stroke-miterlimit:4;stroke-dasharray:none;stroke-opacity:0.94117647"
       id="path4161" />
    <path
       d="m 371.86464,216.20538 -1.88965,27.81739 q -1.62598,-0.26368 -7.03125,-0.92286 -3.69141,-0.35156 -8.08594,-0.43945 l -0.65918,8.39356 q 4.83399,0.13183 15.77637,-0.21973 -0.4834,1.62598 -1.53809,6.06445 -0.61523,2.68067 -1.09863,6.19629 -1.27441,-0.30762 -6.37207,-0.79101 -2.37305,-0.13184 -7.03125,-0.0879 l -0.43945,9.7998 q 3.2959,-0.044 12.1289,-0.57129 1.66993,-0.13183 5.49317,-1.05469 -0.35156,1.36231 -1.62598,6.54786 -0.61523,2.68066 -1.49414,6.76757 l -39.33105,0 -1.27442,-34.45312 q -0.35156,-11.82129 -1.71386,-33.04688 l 46.18652,0 z"
       style="font-style:normal;font-variant:normal;font-weight:normal;font-stretch:normal;font-size:90px;font-family:'Showcard Gothic';-inkscape-font-specification:'Showcard Gothic';fill:#f29600;fill-opacity:0.47058824;stroke:#f29600;stroke-width:4;stroke-linecap:round;stroke-linejoin:round;stroke-miterlimit:4;stroke-dasharray:none;stroke-opacity:0.94117647"
       id="path4163" />
    <path
       d="m 125.50722,328.70538 q -0.74707,10.81055 -1.97754,35.2002 -0.35156,11.60156 -1.23047,32.2998 l -22.41211,0 -0.483398,-14.76562 q -0.791016,0.26367 -3.208008,1.27441 -2.856445,1.23047 -4.042969,1.97754 l -2.285156,-5.40527 q -0.703125,-1.75781 -2.329102,-4.96582 l -0.439453,21.88476 -24.741211,0 -1.274414,-32.2998 q -0.395508,-12.61231 -1.977539,-35.2002 l 30.84961,0 -2.06543,41.57227 q 3.208008,0.30762 6.152344,0.17578 1.889648,-0.044 5.097656,-0.35156 l -2.241211,-41.39649 28.608401,0 z"
       style="font-style:normal;font-variant:normal;font-weight:normal;font-stretch:normal;font-size:90px;font-family:'Showcard Gothic';-inkscape-font-specification:'Showcard Gothic';fill:#f29600;fill-opacity:0.47058824;stroke:#f29600;stroke-width:4;stroke-linecap:round;stroke-linejoin:round;stroke-miterlimit:4;stroke-dasharray:none;stroke-opacity:0.94117647"
       id="path4165" />
    <path
       d="m 159.56483,328.70538 -1.71386,35.90332 q -0.4834,11.60157 -1.14258,31.59668 l -24.65332,0 -2.98828,-67.5 30.49804,0 z"
       style="font-style:normal;font-variant:normal;font-weight:normal;font-stretch:normal;font-size:90px;font-family:'Showcard Gothic';-inkscape-font-specification:'Showcard Gothic';fill:#f29600;fill-opacity:0.47058824;stroke:#f29600;stroke-width:4;stroke-linecap:round;stroke-linejoin:round;stroke-miterlimit:4;stroke-dasharray:none;stroke-opacity:0.94117647"
       id="path4167" />
    <path
       d="m 222.1869,353.97394 q 0,8.08594 -4.52636,14.32617 -3.99903,5.44922 -10.01953,7.82227 1.27441,1.97753 6.28418,8.30566 2.50488,2.90039 7.64648,7.64648 -2.06543,0.74707 -9.09668,3.7793 -4.92187,2.24121 -9.27246,4.39453 -1.27441,-1.58203 -5.66895,-8.17383 -2.02148,-3.33984 -5.93261,-11.25 l -0.0879,0 -0.43946,15.38086 -24.74121,0 q -0.4834,-9.58007 -1.3623,-31.59668 -0.39551,-12.96386 -1.80176,-35.90332 12.08496,-1.27441 22.06055,-1.27441 36.958,0 36.958,26.54297 z m -19.95117,9.49219 q 0,-4.17481 -3.51562,-5.97657 -2.59278,-1.31836 -6.50391,-1.14258 l -0.26367,15.0293 q 3.64746,0 6.50391,-1.62597 3.77929,-2.10938 3.77929,-6.28418 z"
       style="font-style:normal;font-variant:normal;font-weight:normal;font-stretch:normal;font-size:90px;font-family:'Showcard Gothic';-inkscape-font-specification:'Showcard Gothic';fill:#f29600;fill-opacity:0.47058824;stroke:#f29600;stroke-width:4;stroke-linecap:round;stroke-linejoin:round;stroke-miterlimit:4;stroke-dasharray:none;stroke-opacity:0.94117647"
       id="path4169" />
    <path
       d="m 255.18983,328.70538 -1.71386,35.90332 q -0.4834,11.60157 -1.14258,31.59668 l -24.65332,0 -2.98828,-67.5 30.49804,0 z"
       style="font-style:normal;font-variant:normal;font-weight:normal;font-stretch:normal;font-size:90px;font-family:'Showcard Gothic';-inkscape-font-specification:'Showcard Gothic';fill:#f29600;fill-opacity:0.47058824;stroke:#f29600;stroke-width:4;stroke-linecap:round;stroke-linejoin:round;stroke-miterlimit:4;stroke-dasharray:none;stroke-opacity:0.94117647"
       id="path4171" />
    <path
       d="m 312.80214,328.70538 q -0.61524,8.87696 -1.71387,30.98145 -0.65918,16.25976 -1.09863,37.39746 -5.75684,-4.52637 -17.53418,-13.49121 -5.09766,-3.55957 -15.20508,-10.67871 l -0.43945,23.29101 -14.15039,0 q -0.35156,-8.9209 -1.62598,-33.66211 -1.09863,-20.03906 -2.24121,-33.83789 l 22.06055,0 16.34765,15.46875 q 0,-5.31738 -0.17578,-8.34961 -0.13183,-2.68066 -0.52734,-7.11914 l 16.30371,0 z"
       style="font-style:normal;font-variant:normal;font-weight:normal;font-stretch:normal;font-size:90px;font-family:'Showcard Gothic';-inkscape-font-specification:'Showcard Gothic';fill:#f29600;fill-opacity:0.47058824;stroke:#f29600;stroke-width:4;stroke-linecap:round;stroke-linejoin:round;stroke-miterlimit:4;stroke-dasharray:none;stroke-opacity:0.94117647"
       id="path4173" />
    <path
       d="m 375.20448,367.33331 q -0.43945,3.73535 -1.31836,14.10645 -0.43945,6.19629 -0.83496,14.67773 -5.88867,1.71387 -17.18261,1.71387 -16.78711,0 -27.29004,-7.55859 -12.39258,-9.00879 -12.39258,-26.80664 0,-17.05079 10.85449,-26.63086 10.19531,-9.00879 26.85059,-9.00879 6.28418,0 13.49121,0.96679 l 2.41699,27.7295 q -2.90039,-1.09864 -8.26172,-1.09864 -6.81152,0 -12.30469,4.17481 -6.15234,4.70215 -6.15234,11.95312 0,6.85547 5.22949,10.59082 4.39453,3.16407 10.15137,2.98828 l -0.70313,-8.833 q -0.26367,-2.72461 -1.18652,-8.96485 l 18.63281,0 z"
       style="font-style:normal;font-variant:normal;font-weight:normal;font-stretch:normal;font-size:90px;font-family:'Showcard Gothic';-inkscape-font-specification:'Showcard Gothic';fill:#f29600;fill-opacity:0.47058824;stroke:#f29600;stroke-width:4;stroke-linecap:round;stroke-linejoin:round;stroke-miterlimit:4;stroke-dasharray:none;stroke-opacity:0.94117647"
       id="path4175" />
    <path
       d="m 408.86659,328.70538 q -2.46094,10.41504 -5.05371,23.77442 -1.27441,6.06445 -2.54883,12.17285 -1.40625,6.81152 -1.40625,9.27246 0,0.70312 0.0879,1.14258 -0.21972,0.0439 -4.70214,0.52734 -2.50489,0.30762 -5.36133,0.79102 -1.05469,-7.16309 -3.69141,-23.4668 -1.53808,-7.42676 -4.70215,-24.21387 l 27.37793,0 z m -4.87793,60.73243 q 0,3.42773 -2.94433,5.80078 -2.90039,2.3291 -6.76758,2.3291 -4.13086,0 -7.11914,-2.3291 -2.94434,-2.37305 -2.94434,-5.88868 0,-3.55957 2.85645,-5.80078 2.90039,-2.28515 7.20703,-2.28515 3.91113,0 6.76758,2.24121 2.94433,2.37304 2.94433,5.93262 z"
       style="font-style:normal;font-variant:normal;font-weight:normal;font-stretch:normal;font-size:90px;font-family:'Showcard Gothic';-inkscape-font-specification:'Showcard Gothic';fill:#f29600;fill-opacity:0.47058824;stroke:#f29600;stroke-width:4;stroke-linecap:round;stroke-linejoin:round;stroke-miterlimit:4;stroke-dasharray:none;stroke-opacity:0.94117647"
       id="path4177" />
  </g>
</svg>
