<?xml version="1.0" encoding="UTF-8" standalone="no"?>
<svg
   xmlns:dc="http://purl.org/dc/elements/1.1/"
   xmlns:cc="http://creativecommons.org/ns#"
   xmlns:rdf="http://www.w3.org/1999/02/22-rdf-syntax-ns#"
   xmlns:svg="http://www.w3.org/2000/svg"
   xmlns="http://www.w3.org/2000/svg"
   viewBox="0 0 133.33333 133.33333"
   height="133.33333"
   width="133.33333"
   xml:space="preserve"
   id="svg2"
   version="1.1"><metadata
     id="metadata8"><rdf:RDF><cc:Work
         rdf:about=""><dc:format>image/svg+xml</dc:format><dc:type
           rdf:resource="http://purl.org/dc/dcmitype/StillImage" /><dc:title></dc:title></cc:Work></rdf:RDF></metadata><defs
     id="defs6" /><g
     transform="matrix(1.3333333,0,0,-1.3333333,0,133.33333)"
     id="g10"><g
       transform="scale(0.1)"
       id="g12"><path
         id="path14"
         style="fill:#ffffff;fill-opacity:1;fill-rule:nonzero;stroke:none"
         d="M 0,0 H 1000 V 1000 H 0 Z" /><path
         id="path16"
         style="fill:#000000;fill-opacity:1;fill-rule:nonzero;stroke:none"
         d="M 121.211,772.73 V 666.68 H 333.32 V 878.789 H 121.211 Z m 181.84,0 V 696.988 H 151.52 V 848.52 h 151.531 z" /><path
         id="path18"
         style="fill:#000000;fill-opacity:1;fill-rule:nonzero;stroke:none"
         d="m 181.84,772.73 v -45.429 h 90.89 v 90.898 h -90.89 z" /><path
         id="path20"
         style="fill:#000000;fill-opacity:1;fill-rule:nonzero;stroke:none"
         d="M 393.949,863.672 V 848.52 h 30.313 v -30.321 h -60.633 v -30.308 h 30.32 v -30.313 h 30.313 v -30.277 h -30.313 v -30.313 h -30.32 V 636.371 H 242.422 v -30.32 h -30.313 v 30.32 h -90.898 v -30.32 h 90.898 v -30.27 H 181.84 v -30.312 h -30.32 v 30.312 H 121.211 V 545.469 H 151.52 V 515.16 h -30.309 v -60.59 h 30.309 v -30.308 h -30.309 v -30.313 h 30.309 v -30.32 h 30.32 v 30.32 h 30.269 v -30.32 h 30.313 v 30.32 h 30.308 v -30.32 h 90.899 V 242.422 h 60.633 v -30.313 h -60.633 v -90.898 h 30.32 v 30.309 h 30.313 v 60.589 H 454.57 V 181.84 h 30.27 v -30.32 h -30.27 v -30.309 h 30.27 v 30.309 h 60.629 v -30.309 h 181.832 v 30.309 h 60.59 v 30.32 h -30.313 v 30.269 h 60.621 v 30.313 h 60.59 v 30.308 h -60.59 v -30.308 h -30.308 v 151.527 h -30.313 v 30.313 h -30.277 v 30.308 h -30.313 v 30.27 h 30.313 v 90.941 h -30.313 v 60.59 h -60.617 v -30.32 h -30.32 v -30.27 h 90.937 V 515.16 H 666.68 v 30.309 H 636.371 V 515.16 h -30.32 v 30.309 H 515.16 V 515.16 h -30.32 v 30.309 H 454.57 V 515.16 h 30.27 v -30.32 h -30.27 v -30.27 h -30.308 v 30.27 h -60.633 v 30.32 h 30.32 v 30.309 h 30.313 v 30.312 h 60.578 v 60.59 h 30.32 v -60.59 h 30.309 v 60.59 h 30.312 v 60.617 h 30.27 V 666.68 h 30.32 v 30.308 h -30.32 v 60.59 h -30.27 v 30.313 h 30.27 v 30.308 h 30.32 v 60.59 H 484.84 V 848.52 h -60.578 v 30.269 h -30.313 z m 151.52,-60.621 V 757.578 H 515.16 v -60.59 h 30.309 V 666.68 H 515.16 v 30.308 h -30.32 v -60.617 h -30.27 v 60.617 H 424.262 V 666.68 h -30.313 v 30.308 h 30.313 v 30.313 h 30.308 v 30.277 h 30.27 v 30.313 h -30.27 v 30.308 h 30.27 v -30.308 h 30.32 v 60.629 h 30.309 z m -121.207,-197 v -30.27 h -30.313 v 60.59 h 30.313 z m -60.633,-30.27 V 545.469 H 333.32 V 515.16 h -30.269 v -30.32 h 30.269 v -30.27 h -30.269 v -30.308 h 60.578 v -30.313 h 30.32 v 60.621 h 30.313 v -30.308 h 60.578 v -30.313 h 60.629 v -30.32 h 30.312 v 30.32 h 30.27 V 333.32 h -30.27 v -30.269 h 30.27 v -60.629 h 90.937 v -30.313 h 30.313 V 151.52 h -30.313 v 30.32 H 666.68 v -30.32 h -30.309 v 60.589 h -30.32 V 181.84 h -30.27 v 30.269 H 545.469 V 181.84 H 515.16 v 30.269 h 30.309 v 30.313 H 515.16 v 30.308 h -30.32 v -30.308 h -30.27 v 30.308 h -60.621 v 30.321 h 60.621 v 30.269 h -60.621 v 30.309 h -30.32 v 30.32 h -60.578 v 30.313 H 272.73 v 60.578 h -30.308 v -30.27 h -30.313 v -30.308 h 30.313 v -30.313 h -30.313 v 30.313 H 181.84 v -30.313 h -30.32 v 30.313 h 30.32 v 30.308 h -30.32 v 60.59 h 30.32 v -30.32 h 60.582 v 30.32 h -30.313 v 60.621 h 30.313 V 515.16 h 30.308 v 60.621 h 30.321 v 30.27 h 60.578 z M 606.051,469.691 V 424.262 H 545.469 V 454.57 H 515.16 v 30.27 h 60.621 v 30.32 h 30.27 z m 90.937,-30.281 v -15.148 h 30.313 v -30.313 h -90.93 v 60.621 h 60.617 z M 727.301,318.199 V 272.73 h -90.93 v 90.899 h 90.93 z" /><path
         id="path22"
         style="fill:#000000;fill-opacity:1;fill-rule:nonzero;stroke:none"
         d="m 303.051,560.621 v -15.152 h 30.269 v 30.312 h -30.269 z" /><path
         id="path24"
         style="fill:#000000;fill-opacity:1;fill-rule:nonzero;stroke:none"
         d="m 393.949,378.789 v -15.16 h 30.313 v 30.32 h -30.313 z" /><path
         id="path26"
         style="fill:#000000;fill-opacity:1;fill-rule:nonzero;stroke:none"
         d="M 454.57,363.629 V 333.32 h 30.27 v 60.629 h -30.27 z" /><path
         id="path28"
         style="fill:#000000;fill-opacity:1;fill-rule:nonzero;stroke:none"
         d="m 515.16,318.199 v -15.148 h 30.309 V 333.32 H 515.16 Z" /><path
         id="path30"
         style="fill:#000000;fill-opacity:1;fill-rule:nonzero;stroke:none"
         d="M 454.57,287.891 V 272.73 h 30.27 v 30.321 h -30.27 z" /><path
         id="path32"
         style="fill:#000000;fill-opacity:1;fill-rule:nonzero;stroke:none"
         d="m 666.68,318.199 v -15.148 h 30.308 V 333.32 H 666.68 Z" /><path
         id="path34"
         style="fill:#000000;fill-opacity:1;fill-rule:nonzero;stroke:none"
         d="M 666.68,772.73 V 666.68 H 878.789 V 878.789 H 666.68 Z m 181.84,0 V 696.988 H 696.988 V 848.52 H 848.52 Z" /><path
         id="path36"
         style="fill:#000000;fill-opacity:1;fill-rule:nonzero;stroke:none"
         d="m 727.301,772.73 v -45.429 h 90.898 v 90.898 h -90.898 z" /><path
         id="path38"
         style="fill:#000000;fill-opacity:1;fill-rule:nonzero;stroke:none"
         d="m 787.891,621.211 v -15.16 h 30.308 v 30.32 h -30.308 z" /><path
         id="path40"
         style="fill:#000000;fill-opacity:1;fill-rule:nonzero;stroke:none"
         d="m 848.52,590.941 v -15.16 h -60.629 v -30.312 h 30.308 V 484.84 h 30.321 v -30.27 h -60.629 v 60.59 h -30.313 v -60.59 h 30.313 v -30.308 h 30.308 v -30.313 h 30.321 v 30.313 h 30.269 V 515.16 H 848.52 v 30.309 h 30.269 v 60.582 H 848.52 Z" /><path
         id="path42"
         style="fill:#000000;fill-opacity:1;fill-rule:nonzero;stroke:none"
         d="m 818.199,333.32 v -30.269 h 60.59 v 60.578 h -60.59 z" /><path
         id="path44"
         style="fill:#000000;fill-opacity:1;fill-rule:nonzero;stroke:none"
         d="M 121.211,227.27 V 121.211 H 333.32 V 333.32 H 121.211 Z m 181.84,0 V 151.52 H 151.52 v 151.531 h 151.531 z" /><path
         id="path46"
         style="fill:#000000;fill-opacity:1;fill-rule:nonzero;stroke:none"
         d="m 181.84,227.27 v -45.43 h 90.89 v 90.89 h -90.89 z" /><path
         id="path48"
         style="fill:#000000;fill-opacity:1;fill-rule:nonzero;stroke:none"
         d="M 848.52,196.988 V 181.84 h -30.321 v -60.629 h 60.59 V 151.52 H 848.52 v 30.32 h 30.269 v 30.269 H 848.52 Z" /></g></g></svg>