<?xml version="1.0" encoding="UTF-8" standalone="no"?>
<svg
   xmlns:dc="http://purl.org/dc/elements/1.1/"
   xmlns:cc="http://creativecommons.org/ns#"
   xmlns:rdf="http://www.w3.org/1999/02/22-rdf-syntax-ns#"
   xmlns:svg="http://www.w3.org/2000/svg"
   xmlns="http://www.w3.org/2000/svg"
   style="fill:none;stroke:none;stroke-linecap:square;stroke-miterlimit:10"
   height="407.0217"
   width="740.90247"
   id="svg93"
   stroke-miterlimit="10"
   viewBox="0 0 740.90247 407.0217"
   version="1.1">
  <metadata
     id="metadata99">
    <rdf:RDF>
      <cc:Work
         rdf:about="">
        <dc:format>image/svg+xml</dc:format>
        <dc:type
           rdf:resource="http://purl.org/dc/dcmitype/StillImage" />
        <dc:title></dc:title>
      </cc:Work>
    </rdf:RDF>
  </metadata>
  <defs
     id="defs97">
    <clipPath
       id="g292c41ffdc_0_959.1">
      <path
         style="clip-rule:evenodd"
         d="M 31.747673,71.93882 H 376.45637 V 178.99065 H 31.747673 Z"
         id="path11" />
    </clipPath>
  </defs>
  <clipPath
     id="g292c41ffdc_0_959.0">
    <path
       style="clip-rule:nonzero"
       id="path2"
       d="M 0,0 H 960 V 540 H 0 Z" />
  </clipPath>
  <path
     id="path7"
     d="M 0,0 H 740.90244 V 407.02171 H 0 Z"
     style="fill:#37474f;fill-rule:evenodd;stroke-width:0.76270533" />
  <g
     transform="translate(3.73337,-96.233236)"
     id="g1120">
    <path
       style="fill:#ffd966;fill-rule:evenodd"
       d="m 105.10236,144.91371 v 0 c 0,-9.12085 7.39391,-16.51476 16.51476,-16.51476 h 66.05708 v 0 c 4.37999,0 8.58058,1.73995 11.67771,4.83706 3.09712,3.09712 4.83706,7.29771 4.83706,11.6777 v 81.0807 c 0,9.12087 -7.39392,16.51477 -16.51477,16.51477 h -66.05708 c -9.12085,0 -16.51476,-7.39391 -16.51476,-16.51477 z"
       id="path22" />
    <path
       style="fill-rule:evenodd;stroke:#9e9e9e;stroke-width:1;stroke-linecap:butt;stroke-linejoin:round"
       d="m 105.10236,144.91371 v 0 c 0,-9.12085 7.39391,-16.51476 16.51476,-16.51476 h 66.05708 v 0 c 4.37999,0 8.58058,1.73995 11.67771,4.83706 3.09712,3.09712 4.83706,7.29771 4.83706,11.6777 v 81.0807 c 0,9.12087 -7.39392,16.51477 -16.51477,16.51477 h -66.05708 c -9.12085,0 -16.51476,-7.39391 -16.51476,-16.51477 z"
       id="path24" />
    <path
       style="fill:#000000;fill-rule:nonzero"
       d="m 139.23465,192.37407 v -1.875 h 1.875 v 1.875 z m 4.73018,0 v -9.67188 h 1.46875 v 1.35938 q 0.45312,-0.71875 1.20312,-1.14063 0.76563,-0.4375 1.71875,-0.4375 1.07813,0 1.76563,0.45313 0.6875,0.4375 0.96875,1.23437 1.15625,-1.6875 2.98437,-1.6875 1.45313,0 2.21875,0.79688 0.78125,0.79687 0.78125,2.45312 v 6.64063 h -1.64062 v -6.09375 q 0,-0.98438 -0.15625,-1.40625 -0.15625,-0.4375 -0.57813,-0.70313 -0.42187,-0.26562 -0.98437,-0.26562 -1.01563,0 -1.6875,0.6875 -0.67188,0.67187 -0.67188,2.15625 v 5.625 h -1.64062 v -6.28125 q 0,-1.09375 -0.40625,-1.64063 -0.40625,-0.54687 -1.3125,-0.54687 -0.6875,0 -1.28125,0.35937 -0.59375,0.35938 -0.85938,1.0625 -0.25,0.70313 -0.25,2.03125 v 5.01563 z m 15.52518,-11.45313 v -1.90625 h 1.64062 v 1.90625 z m -2.07813,15.20313 0.3125,-1.39063 q 0.5,0.125 0.78125,0.125 0.5,0 0.73438,-0.32812 0.25,-0.32813 0.25,-1.67188 v -10.15625 h 1.64062 v 10.20313 q 0,1.78125 -0.46875,2.48437 -0.59375,0.90625 -1.96875,0.90625 -0.65625,0 -1.28125,-0.17187 z m 5.58232,-6.64063 1.625,-0.25 q 0.125,0.96875 0.75,1.5 0.625,0.51563 1.75,0.51563 1.125,0 1.67188,-0.45313 0.54687,-0.46875 0.54687,-1.09375 0,-0.54687 -0.48437,-0.875 -0.32813,-0.21875 -1.67188,-0.54687 -1.8125,-0.46875 -2.51562,-0.79688 -0.6875,-0.32812 -1.04688,-0.90625 -0.35937,-0.59375 -0.35937,-1.3125 0,-0.64062 0.29687,-1.1875 0.29688,-0.5625 0.8125,-0.92187 0.375,-0.28125 1.03125,-0.46875 0.67188,-0.20313 1.42188,-0.20313 1.14062,0 2,0.32813 0.85937,0.32812 1.26562,0.89062 0.42188,0.5625 0.57813,1.5 l -1.60938,0.21875 q -0.10937,-0.75 -0.64062,-1.17187 -0.51563,-0.42188 -1.46875,-0.42188 -1.14063,0 -1.625,0.375 -0.46875,0.375 -0.46875,0.875 0,0.3125 0.1875,0.57813 0.20312,0.26562 0.64062,0.4375 0.23438,0.0937 1.4375,0.42187 1.75,0.45313 2.4375,0.75 0.6875,0.29688 1.07813,0.85938 0.39062,0.5625 0.39062,1.40625 0,0.82812 -0.48437,1.54687 -0.46875,0.71875 -1.375,1.125 -0.90625,0.39063 -2.04688,0.39063 -1.875,0 -2.875,-0.78125 -0.98437,-0.78125 -1.25,-2.32813 z"
       id="path26" />
    <path
       style="fill:#ffd966;fill-rule:evenodd"
       d="m 529.25055,144.91371 v 0 c 0,-9.12085 7.39392,-16.51476 16.51477,-16.51476 h 66.05713 v 0 c 4.37994,0 8.58057,1.73995 11.67767,4.83706 3.09711,3.09712 4.83704,7.29771 4.83704,11.6777 v 81.0807 c 0,9.12087 -7.39386,16.51477 -16.51471,16.51477 h -66.05713 c -9.12085,0 -16.51477,-7.39391 -16.51477,-16.51477 z"
       id="path28" />
    <path
       style="fill-rule:evenodd;stroke:#9e9e9e;stroke-width:1;stroke-linecap:butt;stroke-linejoin:round"
       d="m 529.25055,144.91371 v 0 c 0,-9.12085 7.39392,-16.51476 16.51477,-16.51476 h 66.05713 v 0 c 4.37994,0 8.58057,1.73995 11.67767,4.83706 3.09711,3.09712 4.83704,7.29771 4.83704,11.6777 v 81.0807 c 0,9.12087 -7.39386,16.51477 -16.51471,16.51477 h -66.05713 c -9.12085,0 -16.51477,-7.39391 -16.51477,-16.51477 z"
       id="path30" />
    <path
       style="fill:#000000;fill-rule:nonzero"
       d="m 563.3829,192.37407 v -1.875 h 1.875 v 1.875 z m 4.73016,0 v -9.67188 h 1.46875 v 1.35938 q 0.45313,-0.71875 1.20313,-1.14063 0.76562,-0.4375 1.71875,-0.4375 1.07812,0 1.76562,0.45313 0.6875,0.4375 0.96875,1.23437 1.15625,-1.6875 2.98438,-1.6875 1.45312,0 2.21875,0.79688 0.78125,0.79687 0.78125,2.45312 v 6.64063 h -1.64063 v -6.09375 q 0,-0.98438 -0.15625,-1.40625 -0.15625,-0.4375 -0.57812,-0.70313 -0.42188,-0.26562 -0.98438,-0.26562 -1.01562,0 -1.6875,0.6875 -0.67187,0.67187 -0.67187,2.15625 v 5.625 h -1.64063 v -6.28125 q 0,-1.09375 -0.40625,-1.64063 -0.40625,-0.54687 -1.3125,-0.54687 -0.6875,0 -1.28125,0.35937 -0.59375,0.35938 -0.85937,1.0625 -0.25,0.70313 -0.25,2.03125 v 5.01563 z m 15.52515,-11.45313 v -1.90625 h 1.64063 v 1.90625 z m -2.07812,15.20313 0.3125,-1.39063 q 0.5,0.125 0.78125,0.125 0.5,0 0.73437,-0.32812 0.25,-0.32813 0.25,-1.67188 v -10.15625 h 1.64063 v 10.20313 q 0,1.78125 -0.46875,2.48437 -0.59375,0.90625 -1.96875,0.90625 -0.65625,0 -1.28125,-0.17187 z m 5.58233,-6.64063 1.625,-0.25 q 0.125,0.96875 0.75,1.5 0.625,0.51563 1.75,0.51563 1.125,0 1.67188,-0.45313 0.54687,-0.46875 0.54687,-1.09375 0,-0.54687 -0.48437,-0.875 -0.32813,-0.21875 -1.67188,-0.54687 -1.8125,-0.46875 -2.51562,-0.79688 -0.6875,-0.32812 -1.04688,-0.90625 -0.35937,-0.59375 -0.35937,-1.3125 0,-0.64062 0.29687,-1.1875 0.29688,-0.5625 0.8125,-0.92187 0.375,-0.28125 1.03125,-0.46875 0.67188,-0.20313 1.42188,-0.20313 1.14062,0 2,0.32813 0.85937,0.32812 1.26562,0.89062 0.42188,0.5625 0.57813,1.5 l -1.60938,0.21875 q -0.10937,-0.75 -0.64062,-1.17187 -0.51563,-0.42188 -1.46875,-0.42188 -1.14063,0 -1.625,0.375 -0.46875,0.375 -0.46875,0.875 0,0.3125 0.1875,0.57813 0.20312,0.26562 0.64062,0.4375 0.23438,0.0937 1.4375,0.42187 1.75,0.45313 2.4375,0.75 0.6875,0.29688 1.07813,0.85938 0.39062,0.5625 0.39062,1.40625 0,0.82812 -0.48437,1.54687 -0.46875,0.71875 -1.375,1.125 -0.90625,0.39063 -2.04688,0.39063 -1.875,0 -2.875,-0.78125 -0.98437,-0.78125 -1.25,-2.32813 z"
       id="path32" />
    <path
       style="fill:#000000;fill-opacity:0;fill-rule:evenodd"
       d="M 204.18898,185.45407 H 529.25984"
       id="path34" />
    <path
       style="fill-rule:evenodd;stroke:#9e9e9e;stroke-width:3;stroke-linecap:butt;stroke-linejoin:round"
       d="M 204.18898,185.45407 H 511.25984"
       id="path36" />
    <path
       style="fill:#9e9e9e;fill-rule:evenodd;stroke:#9e9e9e;stroke-width:3;stroke-linecap:butt"
       d="m 511.25986,190.40927 13.61429,-4.9552 -13.61429,-4.9552 z"
       id="path38" />
    <path
       style="fill:#000000;fill-opacity:0;fill-rule:evenodd"
       d="m 305.41733,144.71129 h 80.7244 v 51.18111 h -80.7244 z"
       id="path40" />
    <path
       style="fill:#ffd966;fill-rule:nonzero"
       d="m 321.09738,165.75308 v -1.89063 h 1.64062 v 1.89063 z m 0,11.46875 v -9.67188 h 1.64062 v 9.67188 z m 4.14484,0 v -9.67188 h 1.46875 v 1.35938 q 0.45312,-0.71875 1.20312,-1.14063 0.76563,-0.4375 1.71875,-0.4375 1.07813,0 1.76563,0.45313 0.6875,0.4375 0.96875,1.23437 1.15625,-1.6875 2.98437,-1.6875 1.45313,0 2.21875,0.79688 0.78125,0.79687 0.78125,2.45312 v 6.64063 h -1.64062 v -6.09375 q 0,-0.98438 -0.15625,-1.40625 -0.15625,-0.4375 -0.57813,-0.70313 -0.42187,-0.26562 -0.98437,-0.26562 -1.01563,0 -1.6875,0.6875 -0.67188,0.67187 -0.67188,2.15625 v 5.625 h -1.64062 v -6.28125 q 0,-1.09375 -0.40625,-1.64063 -0.40625,-0.54687 -1.3125,-0.54687 -0.6875,0 -1.28125,0.35937 -0.59375,0.35938 -0.85938,1.0625 -0.25,0.70313 -0.25,2.03125 v 5.01563 z m 15.5408,3.70312 v -13.375 h 1.48437 v 1.25 q 0.53125,-0.73437 1.1875,-1.09375 0.67188,-0.375 1.625,-0.375 1.23438,0 2.17188,0.64063 0.95312,0.625 1.4375,1.79687 0.48437,1.15625 0.48437,2.54688 0,1.48437 -0.53125,2.67187 -0.53125,1.1875 -1.54687,1.82813 -1.01563,0.625 -2.14063,0.625 -0.8125,0 -1.46875,-0.34375 -0.65625,-0.34375 -1.0625,-0.875 v 4.70312 z m 1.48437,-8.48437 q 0,1.85937 0.75,2.76562 0.76563,0.89063 1.82813,0.89063 1.09375,0 1.875,-0.92188 0.78125,-0.9375 0.78125,-2.875 0,-1.84375 -0.76563,-2.76562 -0.75,-0.92188 -1.8125,-0.92188 -1.04687,0 -1.85937,0.98438 -0.79688,0.96875 -0.79688,2.84375 z m 8.28196,-0.0625 q 0,-2.6875 1.48437,-3.96875 1.25,-1.07813 3.04688,-1.07813 2,0 3.26562,1.3125 1.26563,1.29688 1.26563,3.60938 0,1.85937 -0.5625,2.9375 -0.5625,1.0625 -1.64063,1.65625 -1.0625,0.59375 -2.32812,0.59375 -2.03125,0 -3.28125,-1.29688 -1.25,-1.3125 -1.25,-3.76562 z m 1.6875,0 q 0,1.85937 0.79687,2.79687 0.8125,0.92188 2.04688,0.92188 1.21875,0 2.03125,-0.92188 0.8125,-0.9375 0.8125,-2.84375 0,-1.79687 -0.8125,-2.71875 -0.8125,-0.92187 -2.03125,-0.92187 -1.23438,0 -2.04688,0.92187 -0.79687,0.90625 -0.79687,2.76563 z m 9.28198,4.84375 v -9.67188 h 1.46875 v 1.46875 q 0.5625,-1.03125 1.03125,-1.35937 0.48437,-0.32813 1.0625,-0.32813 0.82812,0 1.6875,0.53125 l -0.5625,1.51563 q -0.60938,-0.35938 -1.20313,-0.35938 -0.54687,0 -0.96875,0.32813 -0.42187,0.32812 -0.60937,0.89062 -0.28125,0.875 -0.28125,1.92188 v 5.0625 z m 9.80642,-1.46875 0.23438,1.45312 q -0.6875,0.14063 -1.23438,0.14063 -0.89062,0 -1.39062,-0.28125 -0.48438,-0.28125 -0.6875,-0.73438 -0.20313,-0.46875 -0.20313,-1.9375 v -5.57812 h -1.20312 v -1.26563 h 1.20312 v -2.39062 l 1.625,-0.98438 v 3.375 h 1.65625 v 1.26563 H 369.669 v 5.67187 q 0,0.6875 0.0781,0.89063 0.0937,0.20312 0.28125,0.32812 0.20312,0.10938 0.57812,0.10938 0.26563,0 0.71875,-0.0625 z"
       id="path42" />
    <path
       style="fill:#ffd966;fill-rule:evenodd"
       d="m 105.09449,373.49377 v 0 c 0,-9.12085 7.39391,-16.51477 16.51476,-16.51477 h 66.05708 v 0 c 4.37999,0 8.58058,1.73993 11.67771,4.83707 3.09712,3.0971 4.83706,7.2977 4.83706,11.6777 v 81.08069 c 0,9.12085 -7.39392,16.51477 -16.51477,16.51477 h -66.05708 c -9.12085,0 -16.51476,-7.39392 -16.51476,-16.51477 z"
       id="path44" />
    <path
       style="fill-rule:evenodd;stroke:#9e9e9e;stroke-width:1;stroke-linecap:butt;stroke-linejoin:round"
       d="m 105.09449,373.49377 v 0 c 0,-9.12085 7.39391,-16.51477 16.51476,-16.51477 h 66.05708 v 0 c 4.37999,0 8.58058,1.73993 11.67771,4.83707 3.09712,3.0971 4.83706,7.2977 4.83706,11.6777 v 81.08069 c 0,9.12085 -7.39392,16.51477 -16.51477,16.51477 h -66.05708 c -9.12085,0 -16.51476,-7.39392 -16.51476,-16.51477 z"
       id="path46" />
    <path
       style="fill:#000000;fill-rule:nonzero"
       d="m 146.99718,420.95413 v -1.875 h 1.875 v 1.875 z m 4.71455,-11.45312 v -1.90625 h 1.64063 v 1.90625 z m -2.07812,15.20312 0.3125,-1.39062 q 0.5,0.125 0.78125,0.125 0.5,0 0.73437,-0.32813 0.25,-0.32812 0.25,-1.67187 v -10.15625 h 1.64063 v 10.20312 q 0,1.78125 -0.46875,2.48438 -0.59375,0.90625 -1.96875,0.90625 -0.65625,0 -1.28125,-0.17188 z m 5.58232,-6.64062 1.625,-0.25 q 0.125,0.96875 0.75,1.5 0.625,0.51562 1.75,0.51562 1.125,0 1.67187,-0.45312 0.54688,-0.46875 0.54688,-1.09375 0,-0.54688 -0.48438,-0.875 -0.32812,-0.21875 -1.67187,-0.54688 -1.8125,-0.46875 -2.51563,-0.79687 -0.6875,-0.32813 -1.04687,-0.90625 -0.35938,-0.59375 -0.35938,-1.3125 0,-0.64063 0.29688,-1.1875 0.29687,-0.5625 0.8125,-0.92188 0.375,-0.28125 1.03125,-0.46875 0.67187,-0.20312 1.42187,-0.20312 1.14063,0 2,0.32812 0.85938,0.32813 1.26563,0.89063 0.42187,0.5625 0.57812,1.5 l -1.60937,0.21875 q -0.10938,-0.75 -0.64063,-1.17188 -0.51562,-0.42187 -1.46875,-0.42187 -1.14062,0 -1.625,0.375 -0.46875,0.375 -0.46875,0.875 0,0.3125 0.1875,0.57812 0.20313,0.26563 0.64063,0.4375 0.23437,0.0937 1.4375,0.42188 1.75,0.45312 2.4375,0.75 0.6875,0.29687 1.07812,0.85937 0.39063,0.5625 0.39063,1.40625 0,0.82813 -0.48438,1.54688 -0.46875,0.71875 -1.375,1.125 -0.90625,0.39062 -2.04687,0.39062 -1.875,0 -2.875,-0.78125 -0.98438,-0.78125 -1.25,-2.32812 z"
       id="path48" />
    <path
       style="fill:#ffd966;fill-rule:evenodd"
       d="m 529.2546,373.49377 v 0 c 0,-9.12085 7.39392,-16.51477 16.51477,-16.51477 h 66.05707 v 0 c 4.38,0 8.58063,1.73993 11.67773,4.83707 3.09711,3.0971 4.83704,7.2977 4.83704,11.6777 v 81.08069 c 0,9.12085 -7.39392,16.51477 -16.51477,16.51477 h -66.05707 c -9.12085,0 -16.51477,-7.39392 -16.51477,-16.51477 z"
       id="path50" />
    <path
       style="fill-rule:evenodd;stroke:#9e9e9e;stroke-width:1;stroke-linecap:butt;stroke-linejoin:round"
       d="m 529.2546,373.49377 v 0 c 0,-9.12085 7.39392,-16.51477 16.51477,-16.51477 h 66.05707 v 0 c 4.38,0 8.58063,1.73993 11.67773,4.83707 3.09711,3.0971 4.83704,7.2977 4.83704,11.6777 v 81.08069 c 0,9.12085 -7.39392,16.51477 -16.51477,16.51477 h -66.05707 c -9.12085,0 -16.51477,-7.39392 -16.51477,-16.51477 z"
       id="path52" />
    <path
       style="fill:#000000;fill-rule:nonzero"
       d="m 571.1573,420.95413 v -1.875 h 1.875 v 1.875 z m 4.71454,-11.45312 v -1.90625 h 1.64062 v 1.90625 z m -2.07813,15.20312 0.3125,-1.39062 q 0.5,0.125 0.78125,0.125 0.5,0 0.73438,-0.32813 0.25,-0.32812 0.25,-1.67187 v -10.15625 h 1.64062 v 10.20312 q 0,1.78125 -0.46875,2.48438 -0.59375,0.90625 -1.96875,0.90625 -0.65625,0 -1.28125,-0.17188 z m 5.58234,-6.64062 1.625,-0.25 q 0.125,0.96875 0.75,1.5 0.625,0.51562 1.75,0.51562 1.125,0 1.67187,-0.45312 0.54688,-0.46875 0.54688,-1.09375 0,-0.54688 -0.48438,-0.875 -0.32812,-0.21875 -1.67187,-0.54688 -1.8125,-0.46875 -2.51563,-0.79687 -0.6875,-0.32813 -1.04687,-0.90625 -0.35938,-0.59375 -0.35938,-1.3125 0,-0.64063 0.29688,-1.1875 0.29687,-0.5625 0.8125,-0.92188 0.375,-0.28125 1.03125,-0.46875 0.67187,-0.20312 1.42187,-0.20312 1.14063,0 2,0.32812 0.85938,0.32813 1.26563,0.89063 0.42187,0.5625 0.57812,1.5 l -1.60937,0.21875 q -0.10938,-0.75 -0.64063,-1.17188 -0.51562,-0.42187 -1.46875,-0.42187 -1.14062,0 -1.625,0.375 -0.46875,0.375 -0.46875,0.875 0,0.3125 0.1875,0.57812 0.20313,0.26563 0.64063,0.4375 0.23437,0.0937 1.4375,0.42188 1.75,0.45312 2.4375,0.75 0.6875,0.29687 1.07812,0.85937 0.39063,0.5625 0.39063,1.40625 0,0.82813 -0.48438,1.54688 -0.46875,0.71875 -1.375,1.125 -0.90625,0.39062 -2.04687,0.39062 -1.875,0 -2.875,-0.78125 -0.98438,-0.78125 -1.25,-2.32812 z"
       id="path54" />
    <path
       style="fill:#000000;fill-opacity:0;fill-rule:evenodd"
       d="M 204.1811,414.03412 H 529.25196"
       id="path56" />
    <path
       style="fill-rule:evenodd;stroke:#9e9e9e;stroke-width:3;stroke-linecap:butt;stroke-linejoin:round"
       d="M 204.1811,414.03412 H 511.25196"
       id="path58" />
    <path
       style="fill:#9e9e9e;fill-rule:evenodd;stroke:#9e9e9e;stroke-width:3;stroke-linecap:butt"
       d="m 511.25198,418.98932 13.61429,-4.9552 -13.61429,-4.9552 z"
       id="path60" />
    <path
       style="fill:#000000;fill-opacity:0;fill-rule:evenodd"
       d="m 305.41733,374.79266 h 80.7244 v 51.18109 h -80.7244 z"
       id="path62" />
    <path
       style="fill:#ffd966;fill-rule:nonzero"
       d="m 317.96176,407.3032 v -9.67188 h 1.46875 v 1.46875 q 0.5625,-1.03125 1.03125,-1.35937 0.48438,-0.32813 1.0625,-0.32813 0.82813,0 1.6875,0.53125 l -0.5625,1.51563 q -0.60937,-0.35938 -1.20312,-0.35938 -0.54688,0 -0.96875,0.32813 -0.42188,0.32812 -0.60938,0.89062 -0.28125,0.875 -0.28125,1.92188 v 5.0625 z m 12.8533,-3.10938 1.6875,0.20313 q -0.40625,1.48437 -1.48437,2.3125 -1.07813,0.8125 -2.76563,0.8125 -2.125,0 -3.375,-1.29688 -1.23437,-1.3125 -1.23437,-3.67187 0,-2.45313 1.25,-3.79688 1.26562,-1.34375 3.26562,-1.34375 1.9375,0 3.15625,1.32813 1.23438,1.3125 1.23438,3.70312 0,0.15625 0,0.4375 h -7.21875 q 0.0937,1.59375 0.90625,2.45313 0.8125,0.84375 2.01562,0.84375 0.90625,0 1.54688,-0.46875 0.64062,-0.48438 1.01562,-1.51563 z m -5.39062,-2.65625 h 5.40625 q -0.10938,-1.21875 -0.625,-1.82812 -0.78125,-0.95313 -2.03125,-0.95313 -1.125,0 -1.90625,0.76563 -0.76563,0.75 -0.84375,2.01562 z m 15.29757,9.46875 v -4.73437 q -0.375,0.54687 -1.0625,0.90625 -0.6875,0.34375 -1.46875,0.34375 -1.71875,0 -2.96875,-1.375 -1.23437,-1.375 -1.23437,-3.76563 0,-1.46875 0.5,-2.625 0.51562,-1.15625 1.46875,-1.75 0.96875,-0.59375 2.10937,-0.59375 1.79688,0 2.82813,1.51563 v -1.29688 h 1.46875 v 13.375 z m -5.04687,-8.5625 q 0,1.85938 0.78125,2.79688 0.78125,0.9375 1.875,0.9375 1.04687,0 1.79687,-0.89063 0.76563,-0.89062 0.76563,-2.70312 0,-1.9375 -0.79688,-2.90625 -0.79687,-0.96875 -1.875,-0.96875 -1.0625,0 -1.8125,0.90625 -0.73437,0.90625 -0.73437,2.82812 z m 15.59448,4.85938 v -1.42188 q -1.125,1.64063 -3.0625,1.64063 -0.85937,0 -1.60937,-0.32813 -0.73438,-0.32812 -1.09375,-0.82812 -0.35938,-0.5 -0.5,-1.21875 -0.10938,-0.46875 -0.10938,-1.53125 v -5.98438 h 1.64063 v 5.35938 q 0,1.28125 0.10937,1.73437 0.15625,0.64063 0.65625,1.01563 0.5,0.375 1.23438,0.375 0.73437,0 1.375,-0.375 0.65625,-0.39063 0.92187,-1.03125 0.26563,-0.65625 0.26563,-1.89063 v -5.1875 h 1.64062 v 9.67188 z m 4.04758,-11.46875 v -1.89063 h 1.64062 v 1.89063 z m 0,11.46875 v -9.67188 h 1.64062 v 9.67188 z m 4.12921,0 v -9.67188 h 1.46875 v 1.46875 q 0.5625,-1.03125 1.03125,-1.35937 0.48437,-0.32813 1.0625,-0.32813 0.82812,0 1.6875,0.53125 l -0.5625,1.51563 q -0.60938,-0.35938 -1.20313,-0.35938 -0.54687,0 -0.96875,0.32813 -0.42187,0.32812 -0.60937,0.89062 -0.28125,0.875 -0.28125,1.92188 v 5.0625 z m 12.8533,-3.10938 1.6875,0.20313 q -0.40625,1.48437 -1.48437,2.3125 -1.07813,0.8125 -2.76563,0.8125 -2.125,0 -3.375,-1.29688 -1.23437,-1.3125 -1.23437,-3.67187 0,-2.45313 1.25,-3.79688 1.26562,-1.34375 3.26562,-1.34375 1.9375,0 3.15625,1.32813 1.23438,1.3125 1.23438,3.70312 0,0.15625 0,0.4375 h -7.21875 q 0.0937,1.59375 0.90625,2.45313 0.8125,0.84375 2.01562,0.84375 0.90625,0 1.54688,-0.46875 0.64062,-0.48438 1.01562,-1.51563 z m -5.39062,-2.65625 h 5.40625 q -0.10938,-1.21875 -0.625,-1.82812 -0.78125,-0.95313 -2.03125,-0.95313 -1.125,0 -1.90625,0.76563 -0.76563,0.75 -0.84375,2.01562 z"
       id="path64" />
    <path
       style="fill:#000000;fill-opacity:0;fill-rule:evenodd"
       d="M 204.18898,185.45407 529.25984,414.021"
       id="path70" />
    <path
       style="fill-rule:evenodd;stroke:#9e9e9e;stroke-width:3;stroke-linecap:butt;stroke-linejoin:round"
       d="M 204.18898,185.45407 514.53535,403.66778"
       id="path72" />
    <path
       style="fill:#9e9e9e;fill-rule:evenodd;stroke:#9e9e9e;stroke-width:3;stroke-linecap:butt"
       d="m 511.6852,407.72125 13.98703,3.77719 -8.28674,-11.88415 z"
       id="path74" />
    <path
       style="fill:#000000;fill-opacity:0;fill-rule:evenodd"
       d="m 256.34622,171.27563 129.79526,91.1181 -29.4173,41.88977 -129.79529,-91.1181 z"
       id="path76" />
    <path
       style="fill:#ffd966;fill-rule:nonzero"
       d="m 262.44135,215.28001 0.70041,-0.99739 q -1.56784,0.6557 -3.03851,-0.37672 -0.94635,-0.66434 -1.37107,-1.74523 -0.42471,-1.08087 -0.20398,-2.31956 0.22071,-1.23868 1.07379,-2.45345 0.83509,-1.18918 1.90503,-1.86989 1.07889,-0.69351 2.21817,-0.65735 1.15207,0.0451 2.13678,0.73642 0.71613,0.50275 1.05054,1.19567 0.35614,0.68911 0.3602,1.41742 l 2.75677,-3.9256 1.34278,0.94266 -7.67764,10.93283 z m -1.45822,-6.92276 q -1.06857,1.52165 -0.95899,2.72496 0.10962,1.20331 0.97925,1.81378 0.88239,0.61946 1.99909,0.33432 1.1257,-0.29793 2.15835,-1.76843 1.14044,-1.62393 1.04361,-2.81827 -0.0879,-1.20712 -1.0086,-1.85351 -0.88242,-0.61945 -1.9953,-0.31255 -1.11292,0.3069 -2.21741,1.8797 z m 12.0314,10.5462 1.26441,1.13581 q -1.18558,0.98135 -2.54389,1.03959 -1.34936,0.0455 -2.7305,-0.92411 -1.73922,-1.22097 -2.01697,-3.00049 -0.25598,-1.78333 1.09995,-3.71416 1.40982,-2.00755 3.20514,-2.38901 1.8081,-0.37249 3.44501,0.77664 1.58578,1.11322 1.81997,2.90038 0.25601,1.78333 -1.11789,3.73973 -0.0898,0.12787 -0.25143,0.35803 l -5.90823,-4.14766 q -0.83921,1.35813 -0.6681,2.52825 0.18009,1.15733 1.1648,1.84862 0.74173,0.52069 1.53546,0.50517 0.80267,-0.0283 1.70227,-0.65679 z m -2.88547,-5.27105 4.42481,3.10624 q 0.6109,-1.06022 0.53909,-1.85517 -0.0917,-1.22889 -1.11474,-1.94709 -0.92075,-0.64639 -2.00019,-0.46872 -1.05765,0.17388 -1.84897,1.16474 z m 4.48801,10.19513 4.83109,-6.87937 -1.18934,-0.83491 0.72736,-1.03575 1.18933,0.83493 0.59265,-0.84395 q 0.55674,-0.79279 0.9758,-1.09043 0.55997,-0.3896 1.27045,-0.36811 0.71045,0.0215 1.59283,0.64093 0.56269,0.395 1.16346,1.00767 l -1.03074,1.03276 q -0.35534,-0.36401 -0.72622,-0.62436 -0.61383,-0.43094 -1.05817,-0.34196 -0.43536,0.0762 -0.93823,0.79226 l -0.51184,0.72886 1.54739,1.08628 -0.72735,1.03576 -1.5474,-1.08631 -4.83108,6.87938 z m 9.77158,5.40887 q -1.19452,0.0969 -2.07367,-0.11938 -0.85739,-0.22007 -1.65027,-0.77669 -1.30441,-0.91571 -1.55878,-2.04883 -0.25439,-1.13312 0.43704,-2.11771 0.41309,-0.58821 1.01389,-0.87278 0.60977,-0.29738 1.22934,-0.28243 0.64136,0.0111 1.28622,0.23476 0.45548,0.16704 1.33298,0.63032 1.75882,0.94835 2.71472,1.21849 0.21033,-0.27234 0.25522,-0.33627 0.57471,-0.81836 0.4335,-1.43294 -0.19723,-0.80665 -1.2203,-1.52485 -0.94635,-0.66436 -1.62741,-0.64611 -0.68106,0.0182 -1.48215,0.69678 l -1.1915,-1.10371 q 0.76273,-0.70546 1.53113,-0.92966 0.7774,-0.23698 1.75506,0.0293 0.97764,0.26633 1.98792,0.97556 1.02307,0.7182 1.4791,1.40106 0.47778,0.67905 0.5115,1.25635 0.0555,0.5735 -0.21555,1.20414 -0.17849,0.39013 -0.80709,1.28522 l -1.25714,1.79016 q -1.31104,1.8669 -1.57175,2.42844 -0.25171,0.54874 -0.332,1.17964 l -1.39392,-0.97856 q 0.0789,-0.57459 0.41391,-1.16034 z m 1.99511,-3.08572 q -0.94442,-0.20484 -2.54599,-1.0237 -0.91207,-0.46846 -1.36511,-0.55742 -0.45303,-0.0889 -0.84241,0.0577 -0.37658,0.15562 -0.62802,0.51366 -0.37716,0.53704 -0.21936,1.18237 0.15781,0.64531 0.9379,1.19295 0.7673,0.53865 1.60181,0.62814 0.85629,0.0857 1.55072,-0.30501 0.54068,-0.30771 1.16027,-1.19002 z m 5.82727,10.02807 0.81717,-1.16362 q -1.86364,0.69625 -3.4494,-0.41697 -0.70337,-0.49378 -1.12863,-1.19323 -0.41248,-0.69047 -0.41925,-1.30615 -0.007,-0.61566 0.29117,-1.28465 0.1799,-0.44646 0.79049,-1.31597 l 3.43924,-4.8974 1.34278,0.94266 -3.08005,4.38591 q -0.73633,1.04853 -0.90723,1.4822 -0.24026,0.61404 -0.0466,1.2082 0.19373,0.59418 0.79477,1.01613 0.60108,0.42195 1.34091,0.48314 0.7616,0.0574 1.34717,-0.31426 0.59455,-0.38443 1.30396,-1.39459 l 2.98126,-4.24527 1.34277,0.94266 -5.55844,7.9151 z m 3.27442,2.29868 7.67764,-10.93282 1.34281,0.94264 -7.67765,10.93284 z m 7.20337,3.26233 -0.64328,1.32385 q -0.64353,-0.27994 -1.0911,-0.59416 -0.72894,-0.51172 -0.97653,-1.02918 -0.23483,-0.50847 -0.14066,-0.996 0.10315,-0.5003 0.94724,-1.70229 l 3.20575,-4.56492 -0.98471,-0.69129 0.72735,-1.03573 0.98472,0.69127 1.3739,-1.95639 1.89569,0.12809 -1.93961,2.76197 1.35556,0.95163 -0.72735,1.03575 -1.35556,-0.95163 -3.25962,4.64165 q -0.39511,0.56263 -0.4479,0.77375 -0.04,0.2201 0.0416,0.43012 0.10337,0.20622 0.41031,0.42168 0.21738,0.15261 0.62418,0.36183 z m 11.30307,-4.28319 1.08655,-1.54723 1.34277,0.94266 -1.08652,1.54721 z m -6.5911,9.3856 5.55844,-7.91511 1.34278,0.94266 -5.55841,7.9151 z m 3.39237,2.38149 5.55844,-7.91512 1.20209,0.84389 -0.78122,1.11247 q 0.78393,-0.32785 1.64022,-0.24217 0.87806,0.0819 1.65815,0.6295 0.88241,0.61946 1.18469,1.3853 0.31125,0.75305 0.0835,1.56677 1.91617,-0.71664 3.41239,0.33375 1.18933,0.83493 1.358,1.92695 0.18146,1.10101 -0.77039,2.45644 l -3.81637,5.43445 -1.34277,-0.94266 3.50207,-4.98689 q 0.5657,-0.80559 0.6803,-1.24061 0.12353,-0.44781 -0.0691,-0.90759 -0.19263,-0.45978 -0.65302,-0.78297 -0.83124,-0.58354 -1.77624,-0.40695 -0.93604,0.1638 -1.78913,1.37855 l -3.23266,4.6033 -1.34281,-0.94265 3.60987,-5.14035 q 0.62857,-0.89509 0.61035,-1.57604 -0.0182,-0.68097 -0.75992,-1.20166 -0.56271,-0.39502 -1.25519,-0.44208 -0.6925,-0.047 -1.31399,0.37575 -0.60871,0.43176 -1.37198,1.51866 l -2.88248,4.1046 z m 10.59127,11.95975 7.68665,-10.94562 1.21487,0.85287 -0.71835,1.02297 q 0.85684,-0.29576 1.6005,-0.2128 0.76541,0.0792 1.5455,0.6268 1.01028,0.70923 1.40939,1.77214 0.42093,1.05911 0.14389,2.29645 -0.26807,1.22455 -1.06726,2.36258 -0.85306,1.21475 -1.97034,1.88131 -1.11724,0.66657 -2.31668,0.6073 -1.19043,-0.0721 -2.11117,-0.71847 -0.66501,-0.46683 -1.00458,-1.12522 -0.33954,-0.65835 -0.36673,-1.32653 l -2.70288,3.84887 z m 6.09089,-6.09043 q -1.06858,1.52164 -0.97556,2.69422 0.11478,1.16876 0.98441,1.77923 0.89517,0.62842 2.06439,0.32288 1.17819,-0.31833 2.29169,-1.9039 1.0596,-1.50888 0.96276,-2.7032 -0.084,-1.18535 -0.95364,-1.79584 -0.85681,-0.6015 -2.08755,-0.26276 -1.20893,0.33493 -2.2865,1.86937 z m 6.81436,4.7074 q 1.54449,-2.19934 3.49573,-2.39499 1.64266,-0.16409 3.11334,0.86832 1.6369,1.14914 1.91849,2.95044 0.29052,1.78851 -1.03846,3.68097 -1.0686,1.52163 -2.14859,2.08075 -1.07098,0.54632 -2.29461,0.41275 -1.21085,-0.12458 -2.24671,-0.85175 -1.66247,-1.16711 -1.94024,-2.94662 -0.26877,-1.79233 1.14105,-3.79987 z m 1.38113,0.96957 q -1.06857,1.52167 -0.95517,2.74674 0.13519,1.22125 1.14548,1.93051 0.9975,0.70023 2.19229,0.41266 1.2038,-0.30039 2.29932,-1.86038 1.03265,-1.47052 0.89746,-2.69178 -0.13519,-1.22128 -1.13269,-1.92154 -1.01029,-0.70922 -2.20508,-0.42163 -1.17304,0.28379 -2.24161,1.80542 z m 4.81317,9.29709 5.55844,-7.91513 1.20212,0.8439 -0.84408,1.202 q 1.05304,-0.52075 1.62524,-0.51996 0.58502,0.01 1.0582,0.34195 0.67779,0.47583 1.07583,1.40436 l -1.33142,0.91711 q -0.2922,-0.64422 -0.77816,-0.98535 -0.44761,-0.31424 -0.98145,-0.28808 -0.53387,0.0261 -1.01059,0.37872 -0.73306,0.55447 -1.33469,1.41119 l -2.90942,4.14295 z m 8.87024,4.4325 -0.64328,1.32385 q -0.64352,-0.27994 -1.09109,-0.59418 -0.72895,-0.51172 -0.97653,-1.02917 -0.23481,-0.50845 -0.14066,-0.99597 0.10315,-0.50034 0.94723,-1.7023 l 3.20575,-4.56495 -0.98471,-0.69128 0.72736,-1.03574 0.98471,0.69129 1.3739,-1.95639 1.89572,0.12808 -1.93963,2.76199 1.35559,0.9516 -0.72736,1.03577 -1.35559,-0.95163 -3.25961,4.64166 q -0.39511,0.56262 -0.44791,0.77374 -0.04,0.2201 0.0416,0.43012 0.10339,0.20621 0.41031,0.42166 0.2174,0.15262 0.62417,0.36185 z"
       id="path78" />
    <path
       style="fill:#000000;fill-opacity:0;fill-rule:evenodd"
       d="M 204.1811,414.03412 529.25196,185.46719"
       id="path80" />
    <path
       style="fill-rule:evenodd;stroke:#9e9e9e;stroke-width:3;stroke-linecap:butt;stroke-linejoin:round"
       d="M 204.1811,414.03412 514.52747,195.82042"
       id="path82" />
    <path
       style="fill:#9e9e9e;fill-rule:evenodd;stroke:#9e9e9e;stroke-width:3;stroke-linecap:butt"
       d="m 517.3776,199.8739 8.28674,-11.88414 -13.98703,3.77718 z"
       id="path84" />
    <path
       style="fill:#000000;fill-opacity:0;fill-rule:evenodd"
       d="M 176.44353,386.13806 321.64038,277.31915 352.31754,318.29553 207.12069,427.11444 Z"
       id="path86" />
    <path
       style="fill:#ffd966;fill-rule:nonzero"
       d="m 223.92201,391.1865 -0.73041,-0.97562 q 0.13632,1.69425 -1.30156,2.77185 -0.92523,0.69346 -2.08436,0.7616 -1.15914,0.0682 -2.26784,-0.52634 -1.1087,-0.59448 -1.99831,-1.78274 -0.87086,-1.16327 -1.18557,-2.39185 -0.32409,-1.24112 0.064,-2.31305 0.40063,-1.0813 1.36339,-1.80285 0.70018,-0.52475 1.46255,-0.62751 0.76552,-0.1246 1.45895,0.0977 l -2.87481,-3.83996 1.31283,-0.98392 8.00643,10.6944 z m -7.03212,-0.76331 q 1.11435,1.48847 2.29199,1.75791 1.17766,0.26944 2.02788,-0.36774 0.86272,-0.64657 0.93848,-1.79684 0.0664,-1.16275 -1.01049,-2.60117 -1.18925,-1.58853 -2.35441,-1.86734 -1.1745,-0.29132 -2.07474,0.38336 -0.86273,0.64658 -0.91663,1.79996 -0.0539,1.15338 1.09792,2.69186 z m 12.48723,1.32218 -1.06774,-1.11334 q 0.52189,-0.2154 0.83448,-0.44968 0.4376,-0.32797 0.58781,-0.67484 0.15956,-0.33438 0.13796,-0.72824 -0.0248,-0.29382 -0.33031,-1.27548 -0.0468,-0.14068 -0.13094,-0.40954 l -8.74409,-5.55292 1.41287,-1.05887 4.96532,3.26907 q 0.95871,0.62879 1.91108,1.37949 -0.44915,-1.06925 -0.78271,-2.1666 l -1.71756,-5.76168 1.31285,-0.98392 2.93933,10.07904 q 0.4894,1.64441 0.58266,2.3165 0.13686,0.91281 -0.0885,1.55035 -0.22538,0.63754 -0.85054,1.10605 -0.3876,0.2905 -0.97195,0.47461 z m 5.29826,-8.61804 -5.79645,-7.74253 1.1753,-0.88083 0.82405,1.10071 q -0.10492,-1.91302 1.50799,-3.12182 0.70018,-0.52478 1.47513,-0.71503 0.77493,-0.19028 1.37152,0.007 0.59973,0.17535 1.13365,0.65387 0.34659,0.30652 1.03019,1.2196 l 3.56776,4.7656 -1.31284,0.98391 -3.53031,-4.71554 q -0.59931,-0.80054 -1.05214,-1.06647 -0.4497,-0.28781 -1.01522,-0.23495 -0.56552,0.0528 -1.09066,0.44638 -0.83773,0.62783 -1.04772,1.62484 -0.20686,0.97513 0.90749,2.4636 l 3.16511,4.22775 z m 12.64237,-10.95893 q -0.27884,1.16577 -0.75737,1.93445 -0.47539,0.7468 -1.25058,1.32779 -1.27533,0.95581 -2.43123,0.8458 -1.15589,-0.11002 -1.87694,-1.07315 -0.43076,-0.57535 -0.51466,-1.23496 -0.0933,-0.67209 0.11332,-1.2565 0.20974,-0.60629 0.6225,-1.14993 0.30019,-0.3812 1.01297,-1.07163 1.44745,-1.37768 2.00101,-2.20257 -0.19351,-0.28458 -0.24034,-0.34711 -0.59931,-0.80051 -1.22724,-0.85712 -0.82788,-0.063 -1.82814,0.68671 -0.92524,0.69342 -1.11938,1.34662 -0.19416,0.65317 0.20198,1.62549 l -1.41895,0.79007 q -0.43362,-0.94422 -0.40809,-1.74439 0.0162,-0.81271 0.57286,-1.65948 0.55668,-0.84681 1.54445,-1.58707 1.00026,-0.74966 1.79083,-0.97116 0.79372,-0.24341 1.35286,-0.0962 0.56227,0.12533 1.07747,0.57885 0.31535,0.29087 0.97084,1.16642 l 1.311,1.75113 q 1.36717,1.82617 1.8199,2.24841 0.44336,0.4097 1.01804,0.68195 l -1.36286,1.02142 q -0.52157,-0.25348 -0.97425,-0.75385 z m -2.31311,-2.85507 q -0.48795,0.83432 -1.76349,2.10272 -0.72844,0.72165 -0.95366,1.12476 -0.22522,0.40311 -0.20674,0.81885 0.031,0.40637 0.29315,0.75659 0.39331,0.52536 1.0556,0.57571 0.66231,0.0504 1.425,-0.52124 0.7502,-0.56225 1.09438,-1.32788 0.34732,-0.7875 0.19165,-1.56903 -0.12456,-0.60959 -0.77069,-1.47266 z m 6.27621,1.3689 -5.79645,-7.74249 1.1753,-0.88086 0.81469,1.08819 q -0.0682,-0.84711 0.27916,-1.63461 0.35047,-0.80939 1.11316,-1.38101 0.86272,-0.64658 1.68443,-0.69614 0.81234,-0.0621 1.51497,0.40714 -0.0861,-2.04429 1.37679,-3.14066 1.16281,-0.87146 2.25304,-0.69272 1.10273,0.16937 2.09535,1.49524 l 3.97979,5.31592 -1.31283,0.98392 -3.65207,-4.87815 q -0.58994,-0.78799 -0.9678,-1.03201 -0.38723,-0.25653 -0.88401,-0.21616 -0.49678,0.0404 -0.9469,0.37772 -0.81271,0.6091 -0.93832,1.56238 -0.13498,0.94079 0.75462,2.12906 l 3.37111,4.5029 -1.31283,0.98391 -3.76442,-5.02823 q -0.65549,-0.87558 -1.30832,-1.0697 -0.65283,-0.19415 -1.37802,0.34934 -0.55016,0.41232 -0.80989,1.05609 -0.25975,0.64377 -0.0509,1.36593 0.22134,0.7128 1.0173,1.77597 l 3.00592,4.01511 z m 5.56253,-18.5011 -1.13307,-1.51349 1.31285,-0.98392 1.13306,1.51349 z m 6.87335,9.18091 -5.79644,-7.7425 1.31283,-0.98391 5.79645,7.74249 z m 6.24234,-9.11081 1.41895,-0.79007 q 0.78006,1.48517 0.47604,2.90411 -0.30087,1.39707 -1.5762,2.35285 -1.58792,1.19009 -3.32788,0.87344 -1.73999,-0.31662 -3.19144,-2.25537 -0.9458,-1.26331 -1.2355,-2.51065 -0.28971,-1.24735 0.21402,-2.34735 0.49438,-1.11249 1.49466,-1.86215 1.26281,-0.94645 2.54062,-0.90824 1.27777,0.0382 2.38305,1.04526 l -1.13485,1.14343 q -0.76813,-0.63495 -1.52106,-0.67596 -0.76227,-0.0536 -1.41245,0.43371 -0.98773,0.7403 -1.07913,1.92179 -0.0914,1.18148 1.0604,2.71997 1.17053,1.5635 2.30444,1.82669 1.12454,0.25067 2.08731,-0.47089 0.77518,-0.58096 0.93198,-1.44049 0.16931,-0.86886 -0.43296,-1.96008 z m 1.8132,-11.25867 -1.13308,-1.51349 1.31286,-0.98392 1.13306,1.51349 z m 6.87336,9.18094 -5.79648,-7.74252 1.31286,-0.98392 5.79645,7.74249 z m 3.31671,-2.48575 -5.79645,-7.74249 1.17529,-0.88086 0.8147,1.0882 q -0.0682,-0.84711 0.27914,-1.63462 0.35047,-0.80938 1.11316,-1.38101 0.86274,-0.64658 1.68445,-0.69614 0.81235,-0.0621 1.51496,0.40714 -0.0861,-2.04428 1.3768,-3.14066 1.16281,-0.87146 2.25302,-0.69272 1.10275,0.16938 2.09537,1.49524 l 3.97979,5.31592 -1.31283,0.98392 -3.65207,-4.87814 q -0.58994,-0.788 -0.96781,-1.03202 -0.38723,-0.25653 -0.884,-0.21615 -0.49679,0.0404 -0.9469,0.37771 -0.81271,0.6091 -0.93832,1.56238 -0.13498,0.9408 0.75461,2.12906 l 3.37112,4.5029 -1.31284,0.98392 -3.76443,-5.02823 q -0.65549,-0.87558 -1.30832,-1.0697 -0.65283,-0.19416 -1.37802,0.34933 -0.55014,0.41232 -0.80988,1.05609 -0.25976,0.64377 -0.0509,1.36594 0.22134,0.7128 1.0173,1.77597 l 3.00592,4.0151 z m 14.65521,-6.35577 -8.01581,-10.70691 1.18784,-0.8902 0.74911,1.00064 q -0.015,-0.90646 0.29477,-1.58774 0.3129,-0.70312 1.07559,-1.27475 0.98777,-0.74026 2.12189,-0.78967 1.13727,-0.0713 2.22717,0.57633 1.08057,0.6351 1.91398,1.74832 0.88961,1.18826 1.17617,2.45749 0.28656,1.26922 -0.14221,2.39114 -0.43814,1.10941 -1.33838,1.78409 -0.65014,0.48727 -1.38131,0.60568 -0.73114,0.11838 -1.37461,-0.0633 l 2.81864,3.76492 z m -3.89697,-7.68207 q 1.11435,1.48843 2.25763,1.76413 1.14642,0.25378 1.99664,-0.38342 0.87521,-0.65595 0.94788,-1.86246 0.0633,-1.219 -1.09784,-2.77002 -1.10498,-1.47595 -2.27014,-1.75476 -1.15265,-0.28818 -2.00287,0.34903 -0.83771,0.62784 -0.89792,1.90311 -0.0571,1.25341 1.06662,2.75439 z m 6.58984,-5.01694 q -1.61066,-2.15136 -1.1907,-4.06726 0.35412,-1.6127 1.79199,-2.69034 1.6004,-1.19943 3.39978,-0.90777 1.78998,0.27914 3.1759,2.13034 1.11435,1.48846 1.31037,2.68887 0.18664,1.18787 -0.32025,2.30975 -0.49439,1.11252 -1.50715,1.87156 -1.62542,1.21817 -3.40292,0.92965 -1.78683,-0.30102 -3.25702,-2.2648 z m 1.35034,-1.01202 q 1.11435,1.48846 2.31388,1.76105 1.20263,0.2507 2.1904,-0.4896 0.97525,-0.73089 1.07293,-1.95614 0.0883,-1.23777 -1.05411,-2.76377 -1.0769,-1.43841 -2.27954,-1.68911 -1.20266,-0.25071 -2.17791,0.48022 -0.98777,0.74026 -1.08545,1.96552 -0.0946,1.20336 1.0198,2.69183 z m 10.33042,-1.68909 -5.79645,-7.74249 1.17529,-0.88086 0.88025,1.17575 q -0.16794,-1.16287 0.0105,-1.70666 0.19095,-0.55317 0.65356,-0.89988 0.66266,-0.49664 1.66874,-0.58676 l 0.45822,1.55063 q -0.70301,0.0778 -1.17813,0.43387 -0.43763,0.32797 -0.57856,0.84366 -0.14093,0.51565 0.0462,1.0784 0.29931,0.86914 0.92672,1.70718 l 3.03403,4.05261 z m 6.96695,-7.05688 1.05841,1.02267 q -0.46585,0.52487 -0.90348,0.85285 -0.71267,0.53414 -1.28134,0.60885 -0.55615,0.0653 -0.99026,-0.17557 -0.44345,-0.25341 -1.3237,-1.4292 l -3.34302,-4.46536 -0.96277,0.72153 -0.75851,-1.01315 0.96277,-0.72153 -1.43274,-1.91376 0.71038,-1.76254 2.02268,2.70175 1.32535,-0.99329 0.75851,1.01316 -1.32535,0.99328 3.3992,4.54044 q 0.41205,0.55035 0.59629,0.66611 0.19677,0.10635 0.42172,0.094 0.22809,-0.0343 0.52817,-0.25915 0.21255,-0.15931 0.53769,-0.48108 z"
       id="path88" />
  </g>
</svg>
